<?xml version="1.0" encoding="utf-8"?>
<!-- Generator: Adobe Illustrator 25.0.0, SVG Export Plug-In . SVG Version: 6.00 Build 0)  -->
<svg version="1.1" id="Capa_1" xmlns="http://www.w3.org/2000/svg" xmlns:xlink="http://www.w3.org/1999/xlink" x="0px" y="0px"
	 viewBox="0 0 358.5 512" style="enable-background:new 0 0 358.5 512;" xml:space="preserve">
<style type="text/css">
	.st0{fill:#FFFFFF;}
</style>
<g>
	<g>
		<g>
			<path class="st0" d="M351,512H110c-4.1,0-7.5-3.4-7.5-7.5s3.4-7.5,7.5-7.5h6.5l21.3-83.4L94,431.8L75.3,497H80
				c4.1,0,7.5,3.4,7.5,7.5S84.1,512,80,512H7.5c-2.4,0-4.7-1.2-6.1-3.2c-1.4-2-1.7-4.6-0.9-6.9l18.9-51.6V293.2
				c0-29.5,3.1-59.3,7.3-86.2c-4-0.2-7.2-3.5-7.2-7.5c0-4.1,3.4-7.5,7.5-7.5h2.2c6.6-37,14.7-66.9,18.7-80.4
				c-7.7-3.6-13-11.4-13-20.4c0-12.4,10.1-22.5,22.5-22.5s22.5,10.1,22.5,22.5c0,9-5.3,16.8-13,20.4c3.4,11.6,9.9,35.2,15.8,64.9
				c1.2-13.1,2.9-26,4.8-38.2c-3.9-0.3-6.9-3.5-6.9-7.5c0-4.1,3.4-7.5,7.5-7.5h1.9c6.6-37,14.9-66.9,18.9-80.4
				c-7.7-3.6-13-11.4-13-20.4C95.8,10.1,105.9,0,118.3,0s22.5,10.1,22.5,22.5c0,9-5.3,16.8-13,20.4c4,13.5,12.3,43.4,18.9,80.4h2
				c4.1,0,7.5,3.4,7.5,7.5c0,4-3.1,7.2-7,7.5c1.8,11.2,3.3,22.9,4.5,34.9c6.7-14.5,14.5-34.3,18.2-53.7c0.7-3.5,3.8-6.1,7.4-6.1
				s6.7,2.6,7.4,6.1c3.7,19.4,11.5,39.2,18.2,53.7c1.2-12,2.7-23.7,4.5-35c-3.9-0.3-6.9-3.5-6.9-7.5c0-4.1,3.4-7.5,7.5-7.5h1.9
				c6.6-37,14.9-66.9,18.9-80.4c-7.7-3.6-13-11.4-13-20.4c0-12.4,10.1-22.5,22.5-22.5s22.5,10.1,22.5,22.5c0,9-5.3,16.8-13,20.4
				c4,13.5,12.3,43.4,18.9,80.4h2c4.1,0,7.5,3.4,7.5,7.5c0,4-3.1,7.2-7,7.5c1.9,12.2,3.6,25.1,4.8,38.2
				c5.9-29.8,12.4-53.3,15.8-64.9c-7.7-3.6-13-11.4-13-20.4c0-12.4,10.1-22.5,22.5-22.5s22.5,10.1,22.5,22.5c0,9-5.4,16.8-13.1,20.4
				c3.9,13.5,12.1,43.6,18.6,80.4h2.3c4.1,0,7.5,3.4,7.5,7.5c0,4.1-3.2,7.4-7.3,7.5c0.5,3.3,1,6.6,1.5,10c0.6,4.1-2.3,7.9-6.4,8.5
				c-4.1,0.6-7.9-2.3-8.5-6.4c-0.6-4.1-1.2-8.1-1.8-12.1h-30.8c-2.9,17.8-5.3,37-6.6,56.3l44.8,18.6c-0.3-10-0.9-20.4-1.8-31
				c-0.4-4.1,2.7-7.8,6.8-8.1c4.1-0.4,7.8,2.7,8.1,6.8c1.4,15.2,2.1,29.9,2.1,43.6v157.2l18.9,51.6c0.8,2.3,0.5,4.9-0.9,6.9
				C355.7,510.8,353.4,512,351,512L351,512z M298.8,497h41.5l-14.5-39.6l-43.6-18.1L298.8,497z M242,497h41.2l-18.7-65.2l-43.8-18.2
				L242,497z M206.6,497h19.9l-23.1-90.6l-24.1-10.1l-24.1,10.1L132,497h19.9v-21.5c0-2.2,1-4.3,2.6-5.7c1.2-1,12-9.9,24.8-9.9
				c12.8,0,23.6,8.9,24.8,9.9c1.7,1.4,2.6,3.5,2.6,5.7L206.6,497z M166.8,497h24.8v-17.7c-3.1-2-7.9-4.4-12.4-4.4
				c-4.5,0-9.3,2.4-12.4,4.4L166.8,497L166.8,497z M18.2,497h41.5l16.6-57.8l-43.6,18.1L18.2,497z M308.7,434l15.5,6.4v-25.6
				l-15.5-8.8V434z M34.3,414.9v25.6l15.5-6.4v-27.9L34.3,414.9z M278.2,421.3l15.5,6.4v-30.2l-15.5-8.8V421.3z M64.8,397.6v30.2
				l15.5-6.4v-32.6L64.8,397.6z M247.7,408.6l15.5,6.4v-34.8l-15.5-8.8V408.6z M95.3,380.2V415l15.5-6.4v-37.2L95.3,380.2z
				 M217.2,395.9l15.5,6.4v-39.5l-15.5-8.8V395.9z M125.8,362.9v39.5l15.5-6.4v-41.8L125.8,362.9z M275.1,369.7l49,27.9v-69.4
				l-46-19.1v33.7c0,4.1-3.4,7.5-7.5,7.5s-7.5-3.4-7.5-7.5v-40l-46-19.1v53.1l56.4,32.1C274.1,369.1,274.7,369.4,275.1,369.7
				L275.1,369.7z M34.3,328.2v69.4l46-26.1v-62.4L34.3,328.2z M179.2,380.7c1,0,2,0.2,2.9,0.6l20.1,8.4v-44.1l-23-13.1l-23,13.1
				v44.1l20.1-8.4C177.3,380.9,178.3,380.7,179.2,380.7z M95.3,302.8V363l46-26.1v-53.1L95.3,302.8z M186.7,319.5l15.5,8.8v-80.7
				c-15.7-5.6-30.2-5.6-46,0v80.7l15.5-8.8V299h-0.2c-4.1,0-7.5-3.4-7.5-7.5s3.4-7.5,7.5-7.5h0.2v-0.2c0-4.1,3.4-7.5,7.5-7.5
				s7.5,3.4,7.5,7.5v0.2h0.2c4.1,0,7.5,3.4,7.5,7.5s-3.4,7.5-7.5,7.5h-0.2V319.5z M34.3,298.2V312l46-19.1c0-4.5-0.1-9.1-0.2-13.7
				L34.3,298.2z M278.2,292.8l46,19.1v-13.8l-45.7-19C278.3,283.7,278.2,288.3,278.2,292.8L278.2,292.8z M95.3,272.8v13.8l46-19.1
				v-45c0-28.7-3.1-57.8-7.3-84.1h-31.3c-4.2,26.3-7.3,55.4-7.3,84.1v34.1l20.1-8.4c3.8-1.6,8.2,0.2,9.8,4c1.6,3.8-0.2,8.2-4,9.8
				L95.3,272.8z M217.2,267.4l46,19.1v-13.8l-46-19.1V267.4z M41.9,206.9c-3.8,23.6-6.7,49.3-7.4,75l44.8-18.6
				c-1.3-19.4-3.7-38.5-6.5-56.3L41.9,206.9z M217.2,237.4l46,19.1v-34.1c0-28.7-3.1-57.8-7.3-84.1h-31.3
				c-4.2,26.3-7.3,55.4-7.3,84.1V237.4z M155.8,202.2c0.3,6.7,0.5,13.5,0.5,20.2v9.4c15.5-4.6,30.5-4.6,46,0v-9.4
				c0-6.7,0.2-13.5,0.5-20.2c-2.8-4.9-14.7-26.5-23.4-52.4C170.5,175.8,158.6,197.4,155.8,202.2L155.8,202.2z M288.4,191.9H314
				c-1.6-8.8-3.3-17.2-5-25h-15.7C291.6,174.8,290,183.1,288.4,191.9L288.4,191.9z M44.5,191.9h25.6c-1.6-8.8-3.3-17.2-5-25H49.5
				C47.8,174.8,46.1,183.1,44.5,191.9z M296.7,151.9h8.9c-1.6-6.7-3.1-12.7-4.5-18.1C299.8,139.2,298.3,145.3,296.7,151.9
				L296.7,151.9z M52.9,151.9h8.9c-1.6-6.7-3.1-12.7-4.5-18.1C55.9,139.2,54.4,145.3,52.9,151.9z M227.1,123.3h26.1
				c-1.6-8.8-3.3-17.2-5-25h-16.1C230.4,106.1,228.7,114.5,227.1,123.3z M105.2,123.3h26.1c-1.6-8.8-3.3-17.2-5-25h-16.1
				C108.5,106.1,106.8,114.5,105.2,123.3L105.2,123.3z M301.2,83.6c-4.1,0-7.5,3.4-7.5,7.5c0,4.1,3.4,7.5,7.5,7.5s7.5-3.4,7.5-7.5
				C308.7,87,305.3,83.6,301.2,83.6z M57.3,83.6c-4.1,0-7.5,3.4-7.5,7.5c0,4.1,3.4,7.5,7.5,7.5s7.5-3.4,7.5-7.5
				C64.8,87,61.4,83.6,57.3,83.6z M235.6,83.3h9.3c-1.6-6.9-3.2-13.1-4.7-18.6C238.8,70.2,237.2,76.4,235.6,83.3L235.6,83.3z
				 M113.6,83.3h9.3c-1.6-6.9-3.2-13.1-4.7-18.6C116.8,70.2,115.3,76.4,113.6,83.3z M240.2,15c-4.1,0-7.5,3.4-7.5,7.5
				s3.4,7.5,7.5,7.5s7.5-3.4,7.5-7.5S244.3,15,240.2,15z M118.3,15c-4.1,0-7.5,3.4-7.5,7.5s3.4,7.5,7.5,7.5s7.5-3.4,7.5-7.5
				S122.4,15,118.3,15z M179.2,446.5c-4.1,0-7.5-3.4-7.5-7.5v-6.9h-0.2c-4.1,0-7.5-3.4-7.5-7.5s3.4-7.5,7.5-7.5h0.2v-0.2
				c0-4.1,3.4-7.5,7.5-7.5s7.5,3.4,7.5,7.5v0.2h0.2c4.1,0,7.5,3.4,7.5,7.5s-3.4,7.5-7.5,7.5h-0.2v6.9
				C186.7,443.1,183.4,446.5,179.2,446.5z M301.3,365.5c-4.1,0-7.5-3.4-7.5-7.5v-13.6c0-4.1,3.4-7.5,7.5-7.5s7.5,3.4,7.5,7.5V358
				C308.8,362.1,305.5,365.5,301.3,365.5z M57.2,365.5c-4.1,0-7.5-3.4-7.5-7.5v-13.6c0-4.1,3.4-7.5,7.5-7.5s7.5,3.4,7.5,7.5V358
				C64.7,362.1,61.3,365.5,57.2,365.5z M240.2,336c-4.1,0-7.5-3.4-7.5-7.5v-13.6c0-4.1,3.4-7.5,7.5-7.5s7.5,3.4,7.5,7.5v13.6
				C247.7,332.7,244.3,336,240.2,336z M118.3,336c-4.1,0-7.5-3.4-7.5-7.5v-13.6c0-4.1,3.4-7.5,7.5-7.5s7.5,3.4,7.5,7.5v13.6
				C125.8,332.7,122.4,336,118.3,336z"/>
		</g>
	</g>
</g>
</svg>
