<?xml version="1.0" encoding="utf-8"?>
<!-- Generator: Adobe Illustrator 25.0.0, SVG Export Plug-In . SVG Version: 6.00 Build 0)  -->
<svg version="1.1" id="Capa_1" xmlns="http://www.w3.org/2000/svg" xmlns:xlink="http://www.w3.org/1999/xlink" x="0px" y="0px"
	 viewBox="0 0 480 480" style="enable-background:new 0 0 480 480;" xml:space="preserve">
<style type="text/css">
	.st0{clip-path:url(#SVGID_2_);}
</style>
<g>
	<g>
		<defs>
			<rect id="SVGID_1_" x="1" y="-0.5" width="479" height="479"/>
		</defs>
		<clipPath id="SVGID_2_">
			<use xlink:href="#SVGID_1_"  style="overflow:visible;"/>
		</clipPath>
		<path class="st0" d="M5.3,176.2L132.7,236c1.3,0.6,2.7,0.8,4.1,0.6l46.5-7.6c26.6-4.3,53.7,4.5,72.6,23.7l38.9,39.4
			c2.4,2.4,3.6,5.6,3.4,9c-0.2,3.4-1.8,6.4-4.5,8.5c-4.1,3.2-9.8,3.3-14,0.3L241.8,283c-5.4-3.8-12.6-3.4-17.4,1.1l-27.7,25.2
			c-2.9,2.6-3.1,7-0.5,9.9c2.6,2.9,7,3.1,9.9,0.5l27.6-25.2l37.9,26.9c4.4,3.1,9.7,4.7,14.9,4.7c5.6,0,11.3-1.8,15.9-5.5
			c5.8-4.5,9.4-11.3,9.8-18.6c0.5-7.3-2.2-14.5-7.4-19.7L274,250.9c16.3-4,33.6-3.4,49.6,2.1l16.4,5.6c1.8,0.6,3.7,0.9,5.5,0.9
			c2.9,0,5.8-0.7,8.4-2.2c0,0,0.1,0,0.1-0.1l121.2-70.7c3.3-1.9,4.5-6.2,2.5-9.6c-2-3.3-6.2-4.5-9.6-2.5L347,245.1
			c-0.8,0.4-1.7,0.5-2.5,0.2l-16.4-5.6c-21.2-7.2-44.3-7.2-65.4-0.1c-21.9-20.2-52.1-29.3-81.6-24.5l-44.3,7.2L11.3,163.5
			c-3.5-1.6-7.7-0.1-9.3,3.4C0.3,170.4,1.8,174.6,5.3,176.2L5.3,176.2z M5.3,176.2"/>
		<path class="st0" d="M479,307.6c-1.7-3.5-5.9-4.9-9.4-3.2l-61.7,30.1c-1.1,0.5-2,1.3-2.6,2.2l-5,7c-6,8.4-13.7,15.4-22.6,20.5
			c-0.7-1.1-1.5-2.2-2.4-3.2l-12.3-14.1c-8.9-10.3-24.5-11.4-34.8-2.4l-1,0.9c-5.2,4.5-8.1,10.8-8.4,17.2c-0.1,0-0.2,0-0.3,0
			c-6.6-0.5-12.9,1.7-17.9,6l-1,0.9c-5.2,4.5-8.1,10.8-8.4,17.2c-6.4-0.5-13,1.4-18.2,5.9l-1,0.9c-5.2,4.5-8.1,10.8-8.4,17.2
			c-6.4-0.5-13,1.4-18.2,5.9l-1,0.9c-5,4.3-8,10.3-8.4,16.9c-0.5,6.6,1.7,12.9,6,17.9l5.9,6.8l-2.4,2.1c0,0-0.1,0.1-0.1,0.1
			c-4.6,4.2-12.1,4.1-16.6-0.2c-3.8-4.2-3.9-10.6-0.3-14.9c2.4-2.8,2.2-7-0.5-9.6c-2.7-2.6-6.9-2.6-9.6-0.1l-0.7,0.7
			c-4.6,4.2-12.1,4.1-16.6-0.2c-3.9-4.3-4-10.7-0.2-15c2.5-2.8,2.3-7.1-0.4-9.6c-2.7-2.6-6.9-2.6-9.7-0.1l-0.2,0.2
			c-4.6,4.2-12.1,4.1-16.6-0.2c-3.8-4.2-3.9-10.6-0.2-14.9c2.2-2.5,2.2-6.3,0.2-8.9c-2.1-2.6-5.7-3.4-8.7-1.9
			c-4.6,2.3-10.2,1.2-13.6-2.7c-4-4.5-3.5-11.7,1.1-16l7.5-6.7l23.5-21.3c2.9-2.6,3.1-7,0.5-9.9c-2.6-2.9-7-3.1-9.9-0.5l-23.5,21.3
			l-7.5,6.7c0,0-0.1,0.1-0.1,0.1c-3.9,3.6-6.4,8.1-7.5,13l-0.1,0c-12.9-7.3-24.1-16.8-33.3-28.3l-4-5c-0.6-0.8-1.5-1.5-2.4-1.9
			L11.4,294c-3.5-1.7-7.7-0.3-9.4,3.2c-1.7,3.5-0.3,7.7,3.2,9.4l83,40.6l3,3.8c10.4,12.9,22.9,23.6,37.3,31.8l8.7,5
			c0.9,1.9,2.1,3.8,3.6,5.5c4.3,4.9,10.1,7.8,16.2,8.5c-0.9,7.2,1.3,14.7,6.6,20.3c0.1,0.1,0.1,0.1,0.2,0.2
			c5.4,5.4,12.8,7.9,20.1,7.5c0,6.2,2.3,12.3,6.8,17.1c0.1,0.1,0.1,0.1,0.2,0.2c5.6,5.6,13.3,8.1,20.8,7.4
			c0.2,5.9,2.4,11.8,6.8,16.5c0.1,0.1,0.1,0.1,0.2,0.2c5,5,11.7,7.5,18.4,7.5c6.4,0,12.7-2.3,17.7-6.8l2.5-2.2
			c3.9,3.1,8.6,5,13.7,5.4c0.6,0,1.2,0.1,1.8,0.1c5.9,0,11.6-2.1,16.1-6.1l1-0.9c5.2-4.5,8.1-10.8,8.4-17.2c0.7,0.1,1.4,0.1,2.1,0.1
			c5.7,0,11.5-2,16.2-6l1-0.9c5.2-4.5,8.1-10.8,8.4-17.2c0.7,0.1,1.4,0.1,2.1,0.1c5.7,0,11.5-2,16.2-6l1-0.9c5-4.3,8-10.3,8.4-16.9
			c0-0.1,0-0.2,0-0.3c0.7,0.1,1.4,0.1,2.1,0.1c5.7,0,11.5-2,16.2-6l1-0.9c5.3-4.6,8.2-11.1,8.4-17.6c12.1-6.2,22.5-15.2,30.4-26.3
			l3.9-5.5l60.1-29.4C479.3,315.3,480.7,311.1,479,307.6L479,307.6z M280.7,457.4l-1,0.9c-2.1,1.9-4.9,2.8-7.7,2.6
			c-2.8-0.2-5.4-1.5-7.3-3.6l-12.3-14.1c-1.9-2.1-2.8-4.9-2.6-7.7c0.2-2.8,1.5-5.4,3.6-7.3l1-0.9c2-1.8,4.5-2.6,7-2.6
			c3,0,5.9,1.2,8,3.7l12.3,14.1C285.6,446.8,285.1,453.6,280.7,457.4L280.7,457.4z M308.3,433.4l-1,0.9c-4.4,3.9-11.2,3.4-15-1.1
			l-12.3-14.1c-3.9-4.4-3.4-11.2,1-15l1-0.9c4.4-3.9,11.2-3.4,15,1.1l12.3,14.1C313.3,422.8,312.8,429.5,308.3,433.4L308.3,433.4z
			 M339.7,402c-0.2,2.8-1.5,5.4-3.6,7.3l-1,0.9c-4.4,3.9-11.2,3.4-15-1.1l-12.3-14.1c-3.9-4.4-3.4-11.2,1.1-15l1-0.9
			c2-1.7,4.4-2.6,7-2.6c0.3,0,0.5,0,0.8,0c2.8,0.2,5.4,1.5,7.3,3.6l12.3,14.1C338.9,396.5,339.9,399.2,339.7,402L339.7,402z
			 M363.7,385.3l-1,0.9c-4.4,3.9-11.2,3.4-15-1.1L335.4,371c-1.9-2.1-2.8-4.9-2.6-7.7c0.2-2.8,1.5-5.4,3.6-7.3l1-0.9
			c4.4-3.9,11.2-3.4,15,1.1l12.3,14.1C368.6,374.7,368.1,381.4,363.7,385.3L363.7,385.3z M363.7,385.3"/>
		<path class="st0" d="M215.1,195.8l19.4,7.1c1.8,0.7,3.7,1,5.5,1s3.7-0.3,5.5-1l19.4-7.1c17.6-6.4,33.3-17.4,45.4-31.6
			c12-14.1,20.2-31.1,23.9-49.2c0.8-3.8-1.7-7.5-5.5-8.3c-3.8-0.8-7.5,1.7-8.2,5.5c-6.4,32.1-29.5,59.1-60.3,70.4l-19.4,7.1
			c-0.5,0.2-1,0.2-1.4,0l-19.4-7.1c-37.2-13.6-62.2-49.4-62.2-89v-61c0-1.7,1.2-3.1,2.8-3.4l79.9-15.6l79,15.5
			c1.6,0.3,2.8,1.8,2.8,3.4v51.1c0,3.9,3.1,7,7,7c3.9,0,7-3.1,7-7V32.6c0-8.3-5.9-15.6-14.1-17.2L241.9-0.3c-0.9-0.2-1.8-0.2-2.7,0
			l-81.2,15.8c-8.2,1.6-14.1,8.8-14.1,17.2v61C143.8,139.1,172.5,180.1,215.1,195.8L215.1,195.8z M215.1,195.8"/>
	</g>
	<path d="M241.8,28.3c-0.9-0.2-1.8-0.2-2.7,0l-61.6,12c-3.3,0.6-5.7,3.5-5.7,6.9v46.5c0,33.7,21.3,64.2,53,75.8l12.9,4.7
		c0.8,0.3,1.6,0.4,2.4,0.4s1.6-0.1,2.4-0.4l12.9-4.7c31.7-11.6,53-42.1,53-75.8V47.1c0-3.4-2.4-6.2-5.7-6.9L241.8,28.3z M294.3,93.6
		c0,27.9-17.6,53.1-43.8,62.7l-10.5,3.8l-10.5-3.8c-26.2-9.6-43.8-34.8-43.8-62.7V52.9l54.6-10.6l53.8,10.6V93.6z M294.3,93.6"/>
	<path d="M222.1,106.6c-2.8-2.7-7.3-2.5-9.9,0.3c-2.7,2.8-2.5,7.3,0.3,9.9l11.3,10.6c1.3,1.2,3,1.9,4.8,1.9c0.1,0,0.3,0,0.4,0
		c1.9-0.1,3.7-1,5-2.5l36.7-44.6c2.5-3,2-7.4-1-9.9c-3-2.5-7.4-2-9.9,1l-31.9,38.8L222.1,106.6z M222.1,106.6"/>
</g>
</svg>
