<?xml version="1.0" encoding="utf-8"?>
<!-- Generator: Adobe Illustrator 25.0.0, SVG Export Plug-In . SVG Version: 6.00 Build 0)  -->
<svg version="1.1" id="Layer_1" xmlns="http://www.w3.org/2000/svg" xmlns:xlink="http://www.w3.org/1999/xlink" x="0px" y="0px"
	 viewBox="0 0 384 383.8" style="enable-background:new 0 0 384 383.8;" xml:space="preserve">
<style type="text/css">
	.st0{fill:#1D1E1B;}
</style>
<g>
	<g>
		<path class="st0" d="M382.5,79.4c-2.1-2.3-5.6-2.5-7.9-0.4L358,94.1c-0.7,0.6-1.8,0.6-2.4-0.1l-12.1-13.4
			c-2.1-2.3-5.6-2.5-7.9-0.4c-2.3,2.1-2.5,5.6-0.4,7.9L345,99l-16.7,15.2c-0.8,0.8-1.4,1.8-1.7,2.9l-4.6,19.5
			c-2.5,10.5-8,19.9-16,27.1L273,193.5c-3.3,3-8.5,2.8-11.5-0.6c-1.5-1.6-2.2-3.7-2.1-5.9c0.1-2.2,1.1-4.2,2.7-5.6l14.4-13
			c2.3-2.1,2.5-5.6,0.4-7.9c-2.1-2.3-5.6-2.5-7.9-0.4l-14.4,13c-2.3,2.1-4,4.6-5.1,7.3c-2.4-1.1-5-1.7-7.8-1.7h0
			c-2.8,0-5.5,0.6-7.9,1.8c-0.6-1.9-1.5-3.6-2.6-5.2l14-12.7c2.3-2.1,2.5-5.6,0.4-7.9c-2.1-2.3-5.6-2.5-7.9-0.4l-8,7.2
			c-0.9-2.5-2.4-4.9-4.5-6.9l-4.4-4.3l7.2-6.5c2.3-2.1,2.5-5.6,0.4-7.9c-2.1-2.3-5.6-2.5-7.9-0.4l-7.7,7l-15.8-15.3
			c2.5-1,4.8-2.5,6.8-4.6c7-7.2,7.2-18.5,0.8-26l23.9-21.6c11.4-10.3,25.3-17.4,40.3-20.5c1-0.2,1.9-0.7,2.6-1.3l17.7-16l30,33.1
			c1.1,1.2,2.6,1.8,4.2,1.8c1.3,0,2.7-0.5,3.8-1.5c2.3-2.1,2.5-5.6,0.4-7.9l-32.2-35.6c-0.6-0.7-0.6-1.8,0.1-2.4l16.6-15.1
			c2.3-2.1,2.5-5.6,0.4-7.9c-2.1-2.3-5.6-2.5-7.9-0.4l-16.6,15.1c-3.1,2.8-4.5,6.7-4.2,10.6l-18.6,16.8
			c-16.4,3.7-31.6,11.5-44.1,22.8l-24.3,22.1l-25.2-24.4c-9.4-9.1-21.2-15-34.1-17.2l-18-3l-17-16.4c0.4-3.8-0.9-7.8-3.9-10.7
			L82.3,1.6c-2.2-2.2-5.8-2.1-7.9,0.1c-2.2,2.2-2.1,5.8,0.1,7.9l16.1,15.6c0.7,0.7,0.7,1.7,0,2.4L28.1,92.4
			c-0.4,0.4-0.9,0.5-1.2,0.5c-0.3,0-0.8-0.1-1.2-0.5L9.5,76.9c-2.2-2.2-5.8-2.1-7.9,0.1c-2.2,2.2-2.1,5.8,0.1,7.9l16.1,15.6
			c2.4,2.4,5.6,3.6,9,3.6c0.1,0,0.2,0,0.2,0c0.6,0,1.1-0.1,1.6-0.1l18,17.4c4.7,16.1,13.6,30.8,25.7,42.5l11.7,11.3
			c1.1,1.1,2.5,1.6,3.9,1.6c1.5,0,2.9-0.6,4-1.7c2.2-2.2,2.1-5.8-0.1-7.9l-11.7-11.3c-11-10.7-19-24.1-23.1-38.9
			c-0.3-1-0.8-1.8-1.5-2.5L38.4,97.8l57.9-60l16.3,15.7c0.8,0.8,1.9,1.3,3,1.5l19.7,3.3c10.6,1.8,20.4,6.7,28.1,14.2l32,30.9
			c3.2,3.1,3.3,8.3,0.2,11.5c-2.8,2.9-7.2,3.3-10.4,1.1l-15.1-14.4c-2.2-2.2-5.8-2.1-7.9,0.1c-2.2,2.2-2.1,5.8,0.1,7.9l55.1,53
			c1.5,1.4,2.2,3.3,2.2,5.3c-1-0.2-2.1-0.3-3.2-0.3h0c-2.5,0-4.9,0.5-7.1,1.4c-0.3-4.4-2.2-8.5-5.3-11.6c-3.5-3.5-8-5.4-12.9-5.4h0
			c-1.5,0-3,0.2-4.5,0.6l-20-19.3c-2.2-2.2-5.8-2.1-7.9,0.1c-2.2,2.2-2.1,5.8,0.1,7.9l18.1,17.5c-1.5,1.9-2.6,4-3.3,6.2
			c-2.4-1.1-5.1-1.8-7.8-1.8h0c-1.4,0-2.8,0.2-4.1,0.5l-12.7-12.2c-2.2-2.2-5.8-2.1-7.9,0.1c-2.2,2.2-2.1,5.8,0.1,7.9l10.6,10.2
			c-2.8,3.3-4.3,7.4-4.3,11.8v3.7l-16.1-15.5c-2.2-2.2-5.8-2.1-7.9,0.1c-2.2,2.2-2.1,5.8,0.1,7.9l23.9,23.1l0,17.9
			c-1.4-0.2-2.7-0.9-3.7-1.9l-34.5-33.3c-2.2-2.2-5.8-2.1-7.9,0.1c-2.2,2.2-2.1,5.8,0.1,7.9l30,29c-2.2,1-4.2,2.3-5.9,4
			c-3.7,3.7-5.7,8.5-5.7,13.7l-0.1,44.4c0,13.1,3.9,25.7,11.3,36.5l10.3,15.1l0,23.6c-0.4,0.3-0.9,0.7-1.2,1.1
			c-2.4,2.4-3.8,5.7-3.8,9.1l0,9.7c0,3.1,2.5,5.6,5.6,5.6h0c3.1,0,5.6-2.5,5.6-5.6l0-9.7c0-0.6,0.3-1,0.5-1.2
			c0.2-0.2,0.6-0.5,1.2-0.5l90.1,0.1c0.9,0,1.7,0.8,1.7,1.7l0,9.7c0,3.1,2.5,5.6,5.6,5.6h0c3.1,0,5.6-2.5,5.6-5.6l0-9.7
			c0-4.2-2-7.8-5-10.2l0-25.1c8.3-14.6,12.7-31.2,12.7-48l0-5.1c0-3.1-2.5-5.6-5.6-5.6h0c-3.1,0-5.6,2.5-5.6,5.6l0,5.1
			c0,15.3-4.1,30.4-12,43.6c-0.5,0.9-0.8,1.8-0.8,2.9l0,23.9l-83.4-0.1l0-22.6c0-1.1-0.3-2.2-1-3.2l-11.3-16.5
			c-6.1-8.9-9.3-19.3-9.3-30.1l0.1-44.4c0-2.2,0.9-4.2,2.4-5.8c1.5-1.5,3.6-2.4,5.8-2.4h0c4.5,0,8.1,3.7,8.1,8.2l0,19.4
			c0,3.1,2.5,5.6,5.6,5.6h0c3.1,0,5.6-2.5,5.6-5.6l0-19.4l0.1-56.9c0-1.9,0.7-3.7,2.1-5c1.3-1.3,3.1-2.1,5-2.1h0
			c1.9,0,3.7,0.7,5,2.1c1.3,1.3,2.1,3.1,2.1,5l-0.1,56.9c0,3.1,2.5,5.6,5.6,5.6h0c2.9,0,5.3-2.2,5.6-5c0-0.2,0-0.4,0-0.6l0.1-68.2
			c0-1.9,0.7-3.7,2.1-5c1.3-1.3,3.1-2.1,5-2.1h0c1.9,0,3.7,0.7,5,2.1c1.3,1.3,2.1,3.1,2.1,5l-0.1,68.2c0,3.1,2.5,5.6,5.6,5.6h0
			c2.9,0,5.3-2.2,5.6-5c0-0.2,0-0.4,0-0.6l0.1-52.6c0-1.9,0.7-3.7,2.1-5c1.3-1.3,3.1-2.1,5-2.1h0c3.9,0,7.1,3.2,7.1,7.1l-0.1,52.6
			c0,3.1,2.5,5.6,5.6,5.6h0c2.9,0,5.3-2.2,5.6-5c0-0.2,0-0.4,0-0.6l0-41.7c0-3.9,3.2-7.1,7.1-7.1h0c1.9,0,3.7,0.7,5,2.1
			c1.3,1.3,2.1,3.1,2.1,5l-0.1,59c0,3.1,2.5,5.6,5.6,5.6h0c3.1,0,5.6-2.5,5.6-5.6l0.1-50.8c2.1,0.9,4.3,1.4,6.6,1.5c0.3,0,0.6,0,1,0
			c4.8,0,9.4-1.8,13-5l32.9-29.9c9.7-8.8,16.4-20.1,19.4-32.9l4.2-17.8l17.5-15.8c0.5,0.1,1.1,0.2,1.6,0.2c0.2,0,0.4,0,0.6,0
			c3.2,0,6.3-1.2,8.7-3.4l16.6-15.1C384.5,85.3,384.6,81.7,382.5,79.4L382.5,79.4z M382.5,79.4"/>
	</g>
</g>
</svg>
