<?xml version="1.0" encoding="utf-8"?>
<!-- Generator: Adobe Illustrator 25.0.0, SVG Export Plug-In . SVG Version: 6.00 Build 0)  -->
<svg version="1.1" id="Layer_1" xmlns="http://www.w3.org/2000/svg" xmlns:xlink="http://www.w3.org/1999/xlink" x="0px" y="0px"
	 viewBox="0 0 372 384" style="enable-background:new 0 0 372 384;" xml:space="preserve">
<style type="text/css">
	.st0{clip-path:url(#SVGID_2_);}
</style>
<g>
	<g>
		<defs>
			<rect id="SVGID_1_" width="372" height="384"/>
		</defs>
		<clipPath id="SVGID_2_">
			<use xlink:href="#SVGID_1_"  style="overflow:visible;"/>
		</clipPath>
		<path class="st0" d="M366.2,212.9c-3.7-4.4-9-7.1-14.8-7.6c-5.8-0.5-11.4,1.3-15.8,5.1l-2.9,2.5c-0.7-3.6-2.3-7-4.7-9.9
			c-7.7-9.1-21.4-10.3-30.6-2.5l-2.6,2.2c-0.7-3.4-2.3-6.7-4.7-9.6c-7.7-9.1-21.5-10.3-30.6-2.5l-43.4,36.8c-2.2-0.6-4.6-1-7-1h-78
			c-17.5,0-34.6,4.9-49.4,14.3C67,250,55.2,263.3,47.7,279.1l-2.7,5.6L1.9,339.2c-1.9,2.4-1.5,6,0.9,7.9c1,0.8,2.3,1.2,3.5,1.2
			c1.7,0,3.3-0.7,4.4-2.1l43.6-55c0.3-0.3,0.5-0.7,0.7-1.1l2.9-6.2c13.3-28.1,42.1-46.3,73.2-46.3h78c8,0,14.5,6.5,14.5,14.5
			c0,3.9-1.5,7.6-4.3,10.3c-2.7,2.7-6.3,4.1-10.1,4.1c-0.1,0-50.8,0-50.8,0c-3.1,0-5.6,2.5-5.6,5.6c0,3.1,2.5,5.6,5.6,5.6h50.3
			c7,0.1,13.5-2.5,18.5-7.3c0.7-0.7,1.4-1.4,2-2.2h47.7c5.1,0,10-1.8,13.9-5.1l52.2-44.2c2.1-1.8,4.8-2.7,7.6-2.4
			c2.8,0.2,5.3,1.5,7.1,3.6c1.8,2.1,2.7,4.8,2.4,7.6c-0.2,2.8-1.5,5.3-3.6,7.1l-82.4,69.9c-7.7,6.5-17.1,10.6-27.1,11.8l-14.9,1.8
			c-3.1,0.4-5.3,3.2-4.9,6.3c0.3,2.9,2.8,5,5.6,5c0.2,0,0.5,0,0.7,0l14.9-1.8c12.2-1.5,23.6-6.4,33-14.4l82.4-69.9
			c4.4-3.7,7.1-9,7.6-14.8C371.7,222.9,369.9,217.3,366.2,212.9L366.2,212.9z M266.8,199.1c4.4-3.7,11-3.2,14.7,1.2
			c3.4,4,3.3,9.9-0.3,13.8l-46.4,39.3c0-0.4,0-0.9,0-1.4c0-7.4-3.2-14.2-8.2-18.9L266.8,199.1z M248.1,257l56.6-48
			c4.4-3.7,11-3.2,14.7,1.2c1.8,2.1,2.7,4.8,2.4,7.6c-0.2,2.8-1.5,5.3-3.6,7.1l-34.7,29.7c-1.8,1.6-4.2,2.4-6.6,2.4H248.1z
			 M248.1,257"/>
	</g>
	<path d="M208,321.2l-53.1,6.4c-1.4,0.2-2.7,0.9-3.7,2l-37.8,45.2c-2,2.4-1.7,6,0.7,8c1.1,0.9,2.3,1.3,3.6,1.3c1.6,0,3.2-0.7,4.3-2
		l36.3-43.5l50.9-6.1c3.1-0.4,5.3-3.2,4.9-6.3C213.9,323,211,320.8,208,321.2L208,321.2z M208,321.2"/>
	<path d="M94.7,171.7h13.5l8.7,19.4c1.8,3.9,5.5,6.4,9.8,6.4c4.3,0,8.1-2.5,9.8-6.4l8.7-19.4h28.9c3.1,0,5.6-2.5,5.6-5.6
		s-2.5-5.6-5.6-5.6h-32.6c-2.2,0-4.2,1.3-5.2,3.3l-9.7,21.8l-9.7-21.8c-0.9-2-2.9-3.3-5.2-3.3H94.7c-19.4,0-35.1-15.8-35.1-35.1
		V46.4c0-19.4,15.8-35.1,35.1-35.1h126.8c19.4,0,35.1,15.8,35.1,35.1v78.9c0,19.4-15.7,35.1-35.1,35.1h-23.3c-3.1,0-5.6,2.5-5.6,5.6
		s2.5,5.6,5.6,5.6h23.3c25.6,0,46.4-20.8,46.4-46.4V46.4c0-25.6-20.8-46.4-46.4-46.4H94.7C69.1,0,48.3,20.8,48.3,46.4v78.9
		C48.3,150.9,69.1,171.7,94.7,171.7L94.7,171.7z M94.7,171.7"/>
	<path d="M122.8,53.9c-2.6-1.8-6.1-1.2-7.9,1.4c-6.3,8.9-9.6,19.4-9.6,30.3c0,29.1,23.7,52.8,52.8,52.8c29.1,0,52.8-23.7,52.8-52.8
		c0-8.2-1.9-15.9-5.2-22.8l18.1-17.3c2.3-2.2,2.3-5.7,0.2-8c-2.2-2.3-5.7-2.3-8-0.2l-16.4,15.7c-9.7-12.3-24.7-20.2-41.5-20.2
		c-7.9,0-15.5,1.7-22.6,5.1c-2.8,1.3-4,4.7-2.7,7.5c1.3,2.8,4.7,4,7.5,2.7c5.6-2.7,11.6-4,17.8-4c13.6,0,25.7,6.6,33.3,16.7
		l-35.2,33.7l-7.1-7.1c-2.2-2.2-5.8-2.2-8,0c-2.2,2.2-2.2,5.8,0,8l11,11c1.1,1.1,2.5,1.7,4,1.7c1.4,0,2.8-0.5,3.9-1.6L197,71
		c1.7,4.5,2.6,9.4,2.6,14.5c0,22.9-18.6,41.5-41.5,41.5c-22.9,0-41.5-18.6-41.5-41.5c0-8.6,2.6-16.8,7.5-23.8
		C125.9,59.2,125.3,55.6,122.8,53.9L122.8,53.9z M122.8,53.9"/>
</g>
</svg>
