<?xml version="1.0" encoding="utf-8"?>
<!-- Generator: Adobe Illustrator 25.0.0, SVG Export Plug-In . SVG Version: 6.00 Build 0)  -->
<svg version="1.1" id="Layer_1" xmlns="http://www.w3.org/2000/svg" xmlns:xlink="http://www.w3.org/1999/xlink" x="0px" y="0px"
	 viewBox="0 0 300 384" style="enable-background:new 0 0 300 384;" xml:space="preserve">
<style type="text/css">
	.st0{clip-path:url(#SVGID_2_);}
</style>
<g>
	<path d="M296.7,152l-34.3-39.3c-1.9-2.2-4.6-3.4-7.5-3.4c-2.9,0-5.6,1.2-7.5,3.4L213,152c-2.6,3-3.2,7.1-1.6,10.7
		c1.6,3.6,5.1,5.9,9.1,5.9h10.9v38.8c0,3.2,2.6,5.8,5.8,5.8c3.2,0,5.8-2.6,5.8-5.8V167c0-5.5-4.5-10-10-10h-9.1l31-35.5l31,35.5
		h-9.1c-5.5,0-10,4.5-10,10v40.3c0,3.2,2.6,5.8,5.7,5.8c3.2,0,5.8-2.6,5.8-5.8v-38.8h11c4,0,7.4-2.2,9.1-5.9
		C299.9,159.1,299.3,155,296.7,152L296.7,152z M296.7,152"/>
	<g>
		<defs>
			<rect id="SVGID_1_" width="300" height="384"/>
		</defs>
		<clipPath id="SVGID_2_">
			<use xlink:href="#SVGID_1_"  style="overflow:visible;"/>
		</clipPath>
		<path class="st0" d="M249.8,246.6c0-13.5-11-24.6-24.6-24.6h-6.5c-3.2,0-5.7,2.6-5.7,5.8c0,3.2,2.6,5.8,5.7,5.8h6.5
			c7.2,0,13.1,5.9,13.1,13.1c0,7.2-5.9,13.1-13.1,13.1c-3.2,0-5.8,2.6-5.8,5.8c0,3.2,2.6,5.8,5.8,5.8c7.2,0,13.1,5.9,13.1,13
			c0,7.2-5.9,13.1-13.1,13.1c-3.2,0-5.8,2.6-5.8,5.8c0,3.2,2.6,5.8,5.8,5.8c7.2,0,13.1,5.9,13.1,13c0,7.2-5.9,13.1-13.1,13.1
			c-3.2,0-5.8,2.6-5.8,5.8c0,3.2,2.6,5.8,5.8,5.8c7.2,0,13.1,5.9,13.1,13.1c0,7.2-5.9,13-13.1,13h-89.3c-16.1,0-31.8-4.6-45.4-13.2
			l-0.8-0.5c-0.9-0.6-2-0.9-3.1-0.9H70.2c0.1-0.8,0.1-1.6,0.1-2.4v-19c0-3.2-2.6-5.8-5.8-5.8c-3.2,0-5.8,2.6-5.8,5.8v19
			c0,8.4-6.8,15.2-15.2,15.2H6.5c-3.2,0-5.7,2.6-5.7,5.8c0,3.2,2.6,5.8,5.7,5.8h37.1c9.6,0,18.1-5.1,22.8-12.8H85
			c15.3,9.6,32.9,14.7,50.9,14.7h89.3c13.5,0,24.6-11,24.6-24.6c0-7.5-3.4-14.3-8.8-18.8c5.4-4.5,8.8-11.3,8.8-18.8
			c0-7.5-3.4-14.3-8.8-18.8c5.4-4.5,8.8-11.3,8.8-18.8s-3.4-14.3-8.8-18.8C246.4,260.9,249.8,254.2,249.8,246.6L249.8,246.6z
			 M249.8,246.6"/>
		<path class="st0" d="M19.5,97.4h42.3v25.7c0,3.2,2.6,5.8,5.8,5.8c3.2,0,5.8-2.6,5.8-5.8V91.7c0-3.2-2.6-5.8-5.8-5.8H24l80.6-73.3
			c1.7-1.5,4.1-1.5,5.8,0l80.6,73.3h-43.5c-3.2,0-5.8,2.6-5.8,5.8v33.5c0,3.2,2.6,5.8,5.8,5.8c3.2,0,5.8-2.6,5.8-5.8V97.4h42.3
			c4.1,0,7.6-2.4,9.1-6.2s0.5-8-2.5-10.7L118.1,4.1c-6.1-5.5-15.2-5.5-21.3,0L12.9,80.5c-3,2.7-4,6.9-2.5,10.7
			C11.8,95,15.4,97.4,19.5,97.4L19.5,97.4z M19.5,97.4"/>
	</g>
	<path d="M67.5,141.9c-3.2,0-5.8,2.6-5.8,5.8v39.6c0,3.2,2.6,5.8,5.8,5.8c3.2,0,5.8-2.6,5.8-5.8v-39.6
		C73.3,144.4,70.7,141.9,67.5,141.9L67.5,141.9z M67.5,141.9"/>
	<path d="M6.5,228.5h37.1c8.4,0,15.2,6.8,15.2,15.2V312c0,3.2,2.6,5.8,5.8,5.8c3.2,0,5.8-2.6,5.8-5.8c0,0,0-69.8-0.1-70.5h15
		c1.4,0,2.7-0.5,3.8-1.4l48.1-41.4c6.6-5.7,11.4-13.2,13.8-21.6l5.5-19.3c0.7-2.6,3.2-4.5,5.9-4.5c2.5,0,4.7,1.5,5.7,3.8l0.6,1.4
		c3.9,9.4,5.8,19.4,5.8,29.6c0,6.6-0.8,13.1-2.5,19.5l-3.9,15c-0.7,2.7-0.1,5.4,1.6,7.6c1.7,2.2,4.2,3.4,7,3.4h17.7
		c3.2,0,5.8-2.6,5.8-5.8c0-3.2-2.6-5.8-5.8-5.8H180l3-11.6c1.9-7.3,2.8-14.8,2.8-22.3c0-11.7-2.3-23.1-6.7-33.9l-0.6-1.4
		c-2.7-6.6-9.1-10.9-16.3-10.9c-7.8,0-14.8,5.3-17,12.8l-5.5,19.3c-1.8,6.2-5.3,11.8-10.2,16l-46.5,40H66.4
		c-4.7-7.7-13.2-12.9-22.9-12.9H6.5c-3.2,0-5.7,2.6-5.7,5.8C0.8,226,3.4,228.5,6.5,228.5L6.5,228.5z M6.5,228.5"/>
</g>
</svg>
