<?xml version="1.0" encoding="utf-8"?>
<!-- Generator: Adobe Illustrator 25.0.0, SVG Export Plug-In . SVG Version: 6.00 Build 0)  -->
<svg version="1.1" id="Layer_1" xmlns="http://www.w3.org/2000/svg" xmlns:xlink="http://www.w3.org/1999/xlink" x="0px" y="0px"
	 viewBox="0 0 256.2 384" style="enable-background:new 0 0 256.2 384;" xml:space="preserve">
<g>
	<g>
		<path d="M29.7,284.9C10.8,301.6,0,325.6,0,350.8v27.5c0,3.1,2.5,5.7,5.7,5.7c3.1,0,5.7-2.5,5.7-5.7v-27.5c0-22,9.4-42.9,25.9-57.5
			c2.3-2.1,2.6-5.6,0.5-8C35.7,283,32.1,282.8,29.7,284.9L29.7,284.9z M29.7,284.9"/>
		<path d="M205.9,274.5l-53.3-30.7v-9c6.6-3,12.8-7,18.2-12.1c2.3-2.1,2.4-5.7,0.3-8c-2.1-2.3-5.7-2.4-8-0.3
			c-10.3,9.6-23.7,14.9-37.7,14.9c-30.5,0-55.3-24.8-55.3-55.3v-55.8l14.7-4.1c5.8-1.6,12-1.7,17.8-0.2l14.1,3.5
			c9.6,2.4,19.6,1.7,28.7-2.1c5.5-2.2,11.5-3,17.3-2.4l17.8,2.1v59c0,7.8-1.6,15.4-4.8,22.5c-1.3,2.9,0,6.2,2.9,7.5
			c0.8,0.3,1.5,0.5,2.3,0.5c2.2,0,4.2-1.2,5.2-3.4c3.8-8.6,5.8-17.7,5.8-27.2v-4.8h3.3c11.1,0,20.1-9,20.1-20.1
			c0-6.3-2.9-12-7.5-15.7l5.6-21.1c6.2-3.7,11.2-9.6,13.6-16.8c4.6-13.8-0.8-28.8-13.2-36.5L202.3,52l-0.2-0.7
			c-6.8-22.7-28.1-37.8-51.7-36.6c-1.4,0.1-2.8-0.2-4.1-0.8L129,5.7c-16.5-7.9-35.3-7.6-51.6,0.8C61.2,14.8,50,29.9,46.7,47.9
			L32.9,60.5C20.4,72,18,90.7,27.2,105c2.9,4.5,6.7,8.1,11,10.8l4.7,17.8c-4.6,3.7-7.5,9.3-7.5,15.7c0,11.1,9,20.1,20.1,20.1h3.3
			v4.8c0,26.7,15.8,49.8,38.6,60.4v9.3L51.9,270c-2.7,1.6-3.6,5-2.1,7.7c1,1.8,3,2.8,4.9,2.8c1,0,1.9-0.2,2.8-0.8l40.2-23.1
			c2,13.2,13.5,23.4,27.3,23.4c13.8,0,25.3-10.2,27.3-23.4l47.9,27.6c23.7,13.7,38.5,39.1,38.5,66.5v27.5c0,3.1,2.5,5.7,5.7,5.7
			c3.1,0,5.7-2.5,5.7-5.7v-27.5C250.1,319.4,233.2,290.2,205.9,274.5L205.9,274.5z M195.3,158H192v-17.6h3.3c4.8,0,8.8,3.9,8.8,8.8
			C204.1,154.1,200.1,158,195.3,158L195.3,158z M197.3,129.2c-0.7-0.1-1.3-0.1-2-0.1H192v-12.7l1.9,0.2c2.3,0.3,4.5,0.3,6.7,0
			L197.3,129.2z M40.6,68.9L55.8,55c0.9-0.8,1.5-2,1.8-3.2l0.3-1.9c2.6-14.5,11.6-26.7,24.8-33.4c6.8-3.5,14.1-5.2,21.4-5.2
			c6.9,0,13.7,1.5,20.2,4.6l17.2,8.2c2.9,1.4,6.2,2.1,9.5,1.9c18.5-0.9,35,10.8,40.3,28.5l0.8,2.8c0.4,1.3,1.3,2.5,2.5,3.2l13.4,8.2
			c7.9,4.9,11.4,14.4,8.4,23.2c-3,8.8-11.8,14.5-21.1,13.4l-31.1-3.6c-7.8-0.9-15.7,0.2-22.9,3.1c-6.9,2.8-14.4,3.4-21.7,1.6
			l-14.1-3.5c-7.8-1.9-15.9-1.8-23.6,0.3l-19.3,5.3c-9.9,2.7-20.3-1.2-25.9-9.8C30.5,89.2,32.1,76.6,40.6,68.9L40.6,68.9z
			 M51.2,120.4c1.7,0.2,3.3,0.4,5.1,0.4c0.9,0,1.7,0,2.6-0.1v8.4h-3.3c-0.7,0-1.4,0-2,0.1L51.2,120.4z M55.5,158
			c-4.8,0-8.8-3.9-8.8-8.8c0-4.8,3.9-8.8,8.8-8.8h3.3V158H55.5z M125,268.8c-9,0-16.3-7.3-16.3-16.3v-13.9
			c5.3,1.4,10.9,2.1,16.7,2.1c5.4,0,10.8-0.7,15.9-1.9v13.7C141.3,261.5,134,268.8,125,268.8L125,268.8z M125,268.8"/>
	</g>
	<path d="M256.2,143.6"/>
</g>
</svg>
