<?xml version="1.0" encoding="utf-8"?>
<!-- Generator: Adobe Illustrator 25.0.0, SVG Export Plug-In . SVG Version: 6.00 Build 0)  -->
<svg version="1.1" id="Layer_1" xmlns="http://www.w3.org/2000/svg" xmlns:xlink="http://www.w3.org/1999/xlink" x="0px" y="0px"
	 viewBox="0 0 381 365.3" style="enable-background:new 0 0 381 365.3;" xml:space="preserve">
<style type="text/css">
	.st0{fill:#020203;}
</style>
<g>
	<path class="st0" d="M333.8,311.4c0.7,0,1.3-0.1,1.9-0.4l41.7-15.7c2.1-0.8,3.6-2.9,3.6-5.2c0-2.3-1.4-4.4-3.6-5.2l-141.3-53.2
		c-0.6-0.2-1-0.7-1.2-1.2c-0.2-0.6-0.1-1.2,0.2-1.7l43.6-70.2c20.2-32.5,21.2-71.9,2.6-105.3C262.7,20,228.8,0,190.5,0
		c-38.3,0-72.2,20-90.8,53.4c-18.6,33.5-17.6,72.8,2.6,105.3l43.6,70.2c0.3,0.5,0.4,1.1,0.2,1.7c-0.2,0.6-0.6,1-1.2,1.2L3.6,285
		c-2.1,0.8-3.6,2.9-3.6,5.2c0,2.3,1.4,4.4,3.6,5.2l185,69.6c1.2,0.5,2.6,0.5,3.9,0l84.2-31.7c2.8-1.1,4.3-4.3,3.2-7.1
		c-0.5-1.4-1.5-2.5-2.9-3.1c-1.3-0.6-2.8-0.7-4.2-0.1l-81.5,30.7c-0.5,0.2-1,0.2-1.4,0L26.2,292c-0.8-0.3-1.3-1-1.3-1.9
		s0.5-1.6,1.3-1.9l125.4-47.2c0.9-0.3,1.9,0,2.4,0.8l31.8,51.1c1,1.6,2.8,2.6,4.7,2.6s3.7-1,4.7-2.6l31.8-51.1
		c0.5-0.8,1.5-1.2,2.4-0.8l125.4,47.2c0.8,0.3,1.3,1,1.3,1.9s-0.5,1.6-1.3,1.9l-23,8.7c-2.8,1.1-4.3,4.3-3.2,7.1
		C329.4,309.9,331.5,311.4,333.8,311.4z M192.2,277c-0.4,0.6-1,0.9-1.7,0.9c-0.7,0-1.3-0.4-1.7-0.9l-77.1-124.1
		c-18.1-29-18.9-64.2-2.3-94.1C126,28.9,156.3,11,190.5,11c34.2,0,64.5,17.8,81.2,47.7c16.6,29.9,15.8,65.1-2.3,94.1L192.2,277z"/>
	<path class="st0" d="M304.2,322.5c3,0,5.5-2.5,5.5-5.5s-2.5-5.5-5.5-5.5s-5.5,2.5-5.5,5.5S301.2,322.5,304.2,322.5z"/>
	<path class="st0" d="M190.5,49.3c-30.2,0-54.8,24.6-54.8,54.8c0,30.2,24.6,54.8,54.8,54.8s54.8-24.6,54.8-54.8
		C245.3,73.8,220.7,49.3,190.5,49.3z M227.3,127.6c-8.1,12.6-21.9,20.2-36.8,20.2c-24.1,0-43.7-19.6-43.7-43.7
		c0-2.1,0.2-4.3,0.5-6.4c0.1-1,1-1.7,2-1.7c0,0,0,0,0,0c14,0,27.7,2.5,40.9,7.3c13.6,5,26.1,12.3,36.9,21.8
		C227.7,125.7,227.9,126.8,227.3,127.6z M233.5,112.2c-0.1,0.7-0.6,1.3-1.3,1.5c-0.2,0.1-0.5,0.1-0.7,0.1c-0.5,0-0.9-0.2-1.3-0.4
		c-10.9-8.8-23.1-15.7-36.4-20.5c-12.7-4.6-26-7.3-39.5-7.8c-0.7,0-1.3-0.4-1.7-1c-0.3-0.6-0.3-1.4,0-2
		c7.8-13.4,22.3-21.7,37.8-21.7c24.1,0,43.7,19.6,43.7,43.7C234.2,106.7,234,109.5,233.5,112.2z"/>
</g>
</svg>
