<?xml version="1.0" encoding="utf-8"?>
<!-- Generator: Adobe Illustrator 25.0.0, SVG Export Plug-In . SVG Version: 6.00 Build 0)  -->
<svg version="1.1" id="Layer_1" xmlns="http://www.w3.org/2000/svg" xmlns:xlink="http://www.w3.org/1999/xlink" x="0px" y="0px"
	 viewBox="0 0 380.2 386.4" style="enable-background:new 0 0 380.2 386.4;" xml:space="preserve">
<style type="text/css">
	.st0{fill:#020203;}
</style>
<g>
	<g>
		<g>
			<path class="st0" d="M340.4,88.1c5.4-11.1,9.1-22.5,9.1-33.2c0-30.3-24.6-54.9-54.9-54.9C275,0,257.8,10.3,248,25.8
				c-10.7-3.1-21.6-5.3-32.7-6.4c-3.2-0.3-6,2-6.3,5.1c-0.3,3.2,2,6,5.1,6.3c9.7,1,19.4,2.8,28.8,5.5c-2.1,5.8-3.2,12.1-3.2,18.6
				c0,38.8,48.8,88,50.8,90.1c2.2,2.2,5.9,2.2,8.1,0c1.3-1.3,21.2-21.4,35.8-45.8c11.8,15.8,20.7,33.2,26.5,51.6l-83.6,8.8
				c-1.5,0.2-2.9,0.9-3.8,2c-0.9,1-21.3,25.6-31.8,41.3c-11.8,0.8-22.7,5.3-31.3,12.5l-1.1-6.5l-7.4-44.3c-0.2-1.4-0.9-2.6-2-3.5
				l-44.6-37.4c-0.8-0.7-1.9-1.2-3-1.3l-45.7-5.7c-5.6-16-18.5-28.7-34.6-34.1c30.7-31.9,71.6-50.5,115.9-52.5
				c3.2-0.1,5.6-2.8,5.5-6c-0.1-3.2-2.8-5.6-6-5.5c-25,1.2-49.1,7.3-71.5,18.2C94.2,47.4,75,61.9,58.9,80c-1.3-0.1-2.6-0.2-4-0.2
				C24.6,79.9,0,104.5,0,134.8c0,13.7,6.1,28.7,14,42.4c-1.1,8.3-1.7,16.8-1.7,25.2c0,49.1,19.1,95.3,53.9,130.1
				c34.7,34.7,80.9,53.9,130.1,53.9c49.1,0,95.3-19.1,130.1-53.9c34.7-34.7,53.9-80.9,53.9-130.1
				C380.2,160.4,366.5,120.9,340.4,88.1z M294.6,132.6c-11.5-12.5-43.4-49.6-43.4-77.7c0-23.9,19.5-43.4,43.4-43.4S338,31,338,54.9
				C338,83,306.1,120.1,294.6,132.6z M245.4,214.3c23.9,0,43.4,19.5,43.4,43.4c0,28-31.9,65.2-43.4,77.7
				c-11.5-12.5-43.4-49.6-43.4-77.7C202,233.8,221.5,214.3,245.4,214.3z M11.5,134.8c0-23.9,19.5-43.4,43.4-43.4
				s43.4,19.5,43.4,43.4c0,28-31.9,65.2-43.4,77.7C43.4,200,11.5,162.9,11.5,134.8z M23.8,202.4c0-3.2,0.1-6.4,0.3-9.6
				c12.6,17.8,25.7,31,26.8,32.1c2.2,2.2,5.9,2.2,8.1,0c1.1-1.1,14.9-15,27.8-33.6l22.5,50.6c0.5,1.1,1.3,2,2.3,2.6l33.2,19.9
				l-14.9,45.2l-38.6,29.6C50.3,307.6,23.8,258,23.8,202.4z M101.1,346.1l37.2-28.6c0.9-0.7,1.6-1.7,2-2.8l16.9-51.2
				c0.8-2.6-0.2-5.4-2.5-6.7l-35.6-21.3l-24.8-55.7c8.7-14.4,15.5-30.4,15.5-45c0-2.1-0.1-4.1-0.4-6.1l39.8,5l41.6,34.9l7.1,42.2
				l2.6,15.3c-6.3,8.9-10.1,19.9-10.1,31.6c0,7.7,1.9,15.7,5,23.7l-16.2,46.1l-55,31.5C116.2,355.3,108.4,351,101.1,346.1z
				 M196.3,374.9c-20.6,0-40.3-3.6-58.6-10.2l49.1-28.2c1.2-0.7,2.1-1.8,2.6-3.1l13-37c14.6,26.9,37.5,50,38.9,51.4
				c2.2,2.2,5.9,2.2,8.1,0c1.6-1.6,31.6-31.8,44.7-63.5l47.1,11.2C310.6,343.2,257.1,374.9,196.3,374.9z M298,273.4
				c1.5-5.3,2.3-10.6,2.3-15.7c0-26.9-19.5-49.4-45.1-54c8.8-12.4,21.4-27.7,25.7-32.9L364,162c3.1,13.1,4.7,26.6,4.7,40.4
				c0,30-7.7,58.2-21.2,82.8L298,273.4z"/>
		</g>
	</g>
	<g>
		<g>
			<path class="st0" d="M245.4,227.4c-16.7,0-30.3,13.6-30.3,30.3c0,16.7,13.6,30.3,30.3,30.3s30.3-13.6,30.3-30.3
				C275.8,241,262.2,227.4,245.4,227.4z M245.4,276.5c-10.4,0-18.8-8.4-18.8-18.8c0-10.4,8.4-18.8,18.8-18.8
				c10.4,0,18.8,8.4,18.8,18.8C264.2,268.1,255.8,276.5,245.4,276.5z"/>
		</g>
	</g>
	<g>
		<g>
			<path class="st0" d="M294.6,24.6c-16.7,0-30.3,13.6-30.3,30.3s13.6,30.3,30.3,30.3c16.7,0,30.3-13.6,30.3-30.3
				S311.3,24.6,294.6,24.6z M294.6,73.7c-10.4,0-18.8-8.4-18.8-18.8c0-10.4,8.4-18.8,18.8-18.8c10.4,0,18.8,8.4,18.8,18.8
				C313.4,65.3,305,73.7,294.6,73.7z"/>
		</g>
	</g>
	<g>
		<g>
			<path class="st0" d="M54.9,104.5c-16.7,0-30.3,13.6-30.3,30.3s13.6,30.3,30.3,30.3s30.3-13.6,30.3-30.3S71.7,104.5,54.9,104.5z
				 M54.9,153.6c-10.4,0-18.8-8.4-18.8-18.8c0-10.4,8.4-18.8,18.8-18.8c10.4,0,18.8,8.4,18.8,18.8S65.3,153.6,54.9,153.6z"/>
		</g>
	</g>
</g>
</svg>
