<?xml version="1.0" encoding="utf-8"?>
<!-- Generator: Adobe Illustrator 25.0.0, SVG Export Plug-In . SVG Version: 6.00 Build 0)  -->
<svg version="1.1" id="Layer_1" xmlns="http://www.w3.org/2000/svg" xmlns:xlink="http://www.w3.org/1999/xlink" x="0px" y="0px"
	 viewBox="0 0 348 384" style="enable-background:new 0 0 348 384;" xml:space="preserve">
<style type="text/css">
	.st0{clip-path:url(#SVGID_2_);}
</style>
<g>
	<g>
		<defs>
			<rect id="SVGID_1_" width="348" height="384"/>
		</defs>
		<clipPath id="SVGID_2_">
			<use xlink:href="#SVGID_1_"  style="overflow:visible;"/>
		</clipPath>
		<path class="st0" d="M345.5,291.3l-22.6-18.2c-2.4-1.9-6-1.6-7.9,0.9c-1.9,2.4-1.6,6,0.9,7.9l22.6,18.2c1,0.8,2.3,1.2,3.5,1.2
			c1.6,0,3.3-0.7,4.4-2.1C348.4,296.8,348,293.3,345.5,291.3L345.5,291.3z M345.5,291.3"/>
		<path class="st0" d="M304.2,258.1l-16.4-13.2l-14-25.5c-2.9-5.3-7.1-10-12-13.6l-3.3-2.4l5.8-7.2c7.4-9.2,5.9-22.8-3.3-30.2
			c-4.9-3.9-11-5.4-16.8-4.5c-0.4-5.8-3.1-11.5-8-15.4c-4.9-3.9-11-5.4-16.7-4.5c-0.4-5.8-3.1-11.5-8-15.4c-4.9-3.9-11-5.4-16.8-4.5
			c-0.4-5.8-3.1-11.5-8-15.4c-8.7-7-21.3-6.1-28.9,1.8l-8.9-7.1c-4.3-3.4-9.6-5-15-4.4c-5.4,0.6-10.3,3.3-13.7,7.5
			c-3.7,4.5-5,10.2-4.3,15.6c-0.2,0-0.4,0-0.5,0c-5.4,0.6-10.3,3.3-13.8,7.5c-3.7,4.6-5,10.2-4.3,15.6c-5.4,0.4-10.6,3-14.3,7.6
			c-2.8,3.5-4.4,7.7-4.5,12.1l-6.9,6.6c0,0-0.1,0.1-0.1,0.1c-13.4,13.3-21.5,31-22.9,49.8l-2,27.5L1.6,302.5c-2,2.4-1.6,6,0.9,7.9
			c1,0.8,2.3,1.2,3.5,1.2c1.6,0,3.3-0.7,4.4-2.1l46-57.2c0.7-0.9,1.1-2,1.2-3.1l2.2-29.2c1.2-16.1,8.2-31.3,19.6-42.7l2.6-2.4
			c1.1,1.7,2.5,3.2,4.1,4.5l8.8,7.1l-10.2,12.7c-1.9,2.4-1.6,6,0.9,7.9c1,0.8,2.3,1.2,3.5,1.2c1.6,0,3.3-0.7,4.4-2.1l71.9-89.4
			c3.5-4.4,10-5.1,14.4-1.6c4.4,3.5,5.1,10,1.6,14.4l-0.7,0.8c-2,2.4-1.7,5.9,0.7,7.9c2.4,2,5.9,1.7,7.9-0.7l0,0
			c0.1-0.1,0.8-1,0.8-1c3.5-4.4,10-5.1,14.4-1.6c4.4,3.5,5.1,10,1.6,14.4l0,0c0,0,0,0,0,0c0,0-0.7,0.9-0.8,1.1
			c-1.9,2.5-1.3,6,1.1,7.9c2.5,1.9,6,1.3,7.9-1.1l0.6-0.9c3.5-4.3,9.9-5,14.3-1.5c4.4,3.5,5.1,10,1.6,14.4c0,0,0,0,0,0
			s-0.7,0.9-0.9,1.2l-0.1,0.1c-1.8,2.5-1.3,6,1.2,7.9c2.5,1.8,6,1.3,7.9-1.2l0.7-0.9c3.5-4.3,9.9-5,14.3-1.5
			c4.4,3.5,5.1,10,1.6,14.4l-6.1,7.6l-26.5-19.1c-4.7-3.4-10.3-5.1-16-5.1l-31,0.1c-11.1,0-20.2,9.1-20.3,20.2
			c-0.1,9.6,6.4,17.9,15.8,20.1l29.9,6.9l0.1,2.5c0.2,9.3,2.4,18.3,6.4,26.5c-0.3,0.3-0.6,0.6-0.9,0.9l-14.4,17.9
			c-1.9,2.4-1.6,6,0.9,7.9c1,0.8,2.3,1.2,3.5,1.2c1.6,0,3.3-0.7,4.4-2.1l12.7-15.8c3.2,4.3,7,8.3,11.3,11.7l4.2,3.4
			c1,0.8,2.3,1.2,3.5,1.2c1.6,0,3.3-0.7,4.4-2.1c1.9-2.4,1.6-6-0.9-7.9l-4.2-3.4c-12.1-9.7-19.3-24.2-19.6-39.8l-0.2-6.8
			c-0.1-2.6-1.9-4.8-4.4-5.4l-34.2-7.9c-4.2-1-7.1-4.7-7.1-9c0-5,4.1-9.1,9.1-9.1l31-0.1h0.1c3.4,0,6.6,1,9.3,3l39,28.1
			c3.6,2.6,6.6,6,8.7,9.8l14.6,26.5c0.4,0.6,0.8,1.2,1.4,1.7l17.2,13.9c2.4,1.9,6,1.6,7.9-0.9C307,263.6,306.6,260,304.2,258.1
			L304.2,258.1z M128.9,111.4c1.5-1.9,3.7-3.1,6.2-3.4c0.3,0,0.7-0.1,1-0.1c2.1,0,4.1,0.7,5.8,2l8.8,7.1l-11.5,14.4l-8.8-7.1
			C126.4,121.1,125.7,115.3,128.9,111.4L128.9,111.4z M110.3,134.5c1.5-1.9,3.7-3.1,6.2-3.4c0.3,0,0.7-0.1,1-0.1
			c2.1,0,4.1,0.7,5.8,2l8.8,7.1l-11.5,14.4l-8.8-7.1C107.8,144.3,107.1,138.5,110.3,134.5L110.3,134.5z M89.7,164.4
			c-0.3-2.4,0.4-4.9,2-6.8c1.8-2.3,4.5-3.4,7.2-3.4c2,0,4.1,0.7,5.8,2l8.8,7.1l-11.5,14.4l-8.8-7.1C91.2,169.1,90,166.9,89.7,164.4
			L89.7,164.4z M89.7,164.4"/>
		<path class="st0" d="M277,372.5l-45.6-36.7c-0.9-0.8-2.1-1.2-3.3-1.2l-2.1-0.1c-11.6-0.4-22.6-4.3-31.8-11.3l-19.8-14.9
			c0.1-0.2,0.3-0.3,0.4-0.5l11.4-14.2c1.9-2.4,1.6-6-0.9-7.9c-2.4-1.9-6-1.6-7.9,0.9l-11.4,14.2c-7.7,9.6-18.6,15.8-30.8,17.5
			c-2.6,0.4-5,1.7-6.7,3.8l-42.5,52.9c-2,2.4-1.6,6,0.9,7.9c1,0.8,2.3,1.2,3.5,1.2c1.6,0,3.3-0.7,4.4-2.1l42.3-52.6
			c10.9-1.6,20.9-6.1,29.2-13l21.1,15.9c11.1,8.3,24.3,13,38.2,13.6l0.3,0l44.2,35.5c1,0.8,2.3,1.2,3.5,1.2c1.6,0,3.3-0.7,4.4-2.1
			C279.8,377.9,279.4,374.4,277,372.5L277,372.5z M277,372.5"/>
		<path class="st0" d="M162.8,44.5c1.7,3.4,5.1,5.6,8.9,5.6c3.8,0,7.2-2.1,8.9-5.6l13.5-28c1.2-2.5,1.3-5.5,0.2-8.1
			c-1.1-2.6-3.2-4.6-5.9-5.5c-11.2-3.9-22.5-3.9-33.5,0c-2.6,0.9-4.7,2.9-5.8,5.5c-1.1,2.6-1,5.5,0.2,8.1L162.8,44.5z M183.2,13.1
			L171.7,37L160.2,13C167.8,10.6,175.4,10.7,183.2,13.1L183.2,13.1z M183.2,13.1"/>
	</g>
	<path d="M239.3,74.5c1.8,1.5,4,2.3,6.3,2.3c1.4,0,2.8-0.3,4.1-0.9l28.3-12.9c2.6-1.2,4.5-3.4,5.3-6.1c0.8-2.7,0.5-5.6-1-8v0
		c-6.2-10.2-14.8-17.4-25.7-21.5c-2.6-1-5.5-0.8-8,0.5c-2.5,1.3-4.3,3.6-5,6.3L236,64.6C235.1,68.3,236.3,72.1,239.3,74.5
		L239.3,74.5z M254.1,38.7c7.4,3.1,13.2,7.9,17.7,14.8l-24.1,11L254.1,38.7z M254.1,38.7"/>
	<path d="M65.5,63.1l28.3,12.9c1.3,0.6,2.7,0.9,4.1,0.9c2.3,0,4.5-0.8,6.3-2.3c2.9-2.4,4.2-6.3,3.3-10l-7.6-30.2
		c-0.7-2.7-2.5-5-5-6.3c-2.5-1.3-5.4-1.5-8-0.5C75.9,31.6,67.3,38.8,61.1,49c-1.4,2.4-1.8,5.3-1,8C61,59.7,62.9,61.9,65.5,63.1
		L65.5,63.1z M89.3,38.7l6.5,25.8l-24.1-11C76.1,46.6,81.9,41.8,89.3,38.7L89.3,38.7z M89.3,38.7"/>
</g>
</svg>
