<?xml version="1.0" encoding="utf-8"?>
<!-- Generator: Adobe Illustrator 25.0.0, SVG Export Plug-In . SVG Version: 6.00 Build 0)  -->
<svg version="1.1" id="Capa_1" xmlns="http://www.w3.org/2000/svg" xmlns:xlink="http://www.w3.org/1999/xlink" x="0px" y="0px"
	 viewBox="0 0 480 480" style="enable-background:new 0 0 480 480;" xml:space="preserve">
<style type="text/css">
	.st0{clip-path:url(#SVGID_2_);}
	.st1{clip-path:url(#SVGID_4_);}
</style>
<g>
	<path d="M338.3,264.4c-0.3-1.6,0.3-3.3,1.4-4.4l67.9-66.2c5.2-5.1,7-12.5,4.8-19.5c-2.2-6.9-8.1-11.9-15.3-12.9l-93.8-13.6
		c-1.6-0.2-3-1.3-3.8-2.7l-42-85c-3.2-6.5-9.7-10.6-17-10.6c-7.3,0-13.8,4.1-17,10.6l-21.1,42.8c-1.7,3.5-0.3,7.7,3.2,9.4
		c3.5,1.7,7.6,0.3,9.4-3.2L236,66.2c1.2-2.5,3.5-2.8,4.5-2.8c0.9,0,3.2,0.3,4.5,2.8l42,85c2.8,5.6,8.1,9.5,14.3,10.4l93.8,13.6
		c2.8,0.4,3.7,2.5,4,3.4c0.3,0.9,0.7,3.2-1.3,5.1l-67.9,66.2c-4.5,4.4-6.5,10.6-5.5,16.8l16,93.5c0.5,2.8-1.2,4.3-2,4.9
		c-0.8,0.6-2.8,1.7-5.3,0.4l-33.9-17.8c-3.4-1.8-7.6-0.5-9.4,2.9c-1.8,3.4-0.5,7.6,2.9,9.4l33.9,17.8c2.8,1.5,5.8,2.2,8.8,2.2
		c3.9,0,7.8-1.2,11.1-3.6c5.9-4.3,8.8-11.4,7.5-18.6L338.3,264.4z M338.3,264.4"/>
	<g>
		<defs>
			<rect id="SVGID_1_" x="1" width="479" height="479"/>
		</defs>
		<clipPath id="SVGID_2_">
			<use xlink:href="#SVGID_1_"  style="overflow:visible;"/>
		</clipPath>
		<path class="st0" d="M272.7,333.6l-23.4-12.3c-5.5-2.9-12.1-2.9-17.7,0l-83.9,44.1c-2.5,1.3-4.5,0.2-5.3-0.4
			c-0.8-0.5-2.5-2.1-2-4.9l16-93.5c1.1-6.2-1-12.4-5.5-16.8l-67.9-66.2c-2-2-1.6-4.2-1.3-5.1c0.3-0.9,1.3-3,4-3.4l93.8-13.6
			c6.2-0.9,11.5-4.8,14.3-10.4l7.6-15.3c1.7-3.5,0.3-7.6-3.2-9.4c-3.5-1.7-7.7-0.3-9.4,3.2l-7.6,15.3c-0.7,1.5-2.1,2.5-3.8,2.7
			l-93.8,13.6c-7.2,1-13.1,6-15.3,12.9c-2.3,6.9-0.4,14.4,4.8,19.5l67.9,66.2c1.2,1.2,1.7,2.8,1.4,4.4l-16,93.5
			c-1.2,7.2,1.7,14.3,7.5,18.6c3.3,2.4,7.2,3.6,11.1,3.6c3,0,6-0.7,8.8-2.2l83.9-44.1c1.5-0.8,3.2-0.8,4.6,0l23.4,12.3
			c3.4,1.8,7.6,0.5,9.4-2.9C277.5,339.7,276.2,335.4,272.7,333.6L272.7,333.6z M272.7,333.6"/>
		<path class="st0" d="M37.5,60.4l56.8,28.4c2.2,1.1,4.5,1.6,6.9,1.6c3.7,0,7.3-1.4,10.2-4c4.7-4.3,6.3-10.9,4-16.8L92.6,10.5
			C89.6,2.9,81-1.1,73.4,1.5c-19.8,6.8-34.3,19.9-42.9,39C27.1,47.8,30.2,56.8,37.5,60.4L37.5,60.4z M43.1,46.2
			c7.1-15.6,18.5-26,34.7-31.5c0.1,0,0.2-0.1,0.4-0.1c0.5,0,1.1,0.3,1.3,0.8l22.8,59.3c0.1,0.2,0.3,0.8-0.3,1.4
			c-0.6,0.6-1.2,0.3-1.4,0.2L43.7,47.9C43.2,47.7,42.9,46.8,43.1,46.2L43.1,46.2z M43.1,46.2"/>
		<path class="st0" d="M369.7,86.5c2.9,2.6,6.5,4,10.2,4c2.3,0,4.7-0.5,6.9-1.6l56.8-28.4c7.2-3.6,10.4-12.6,7.1-20
			c-8.7-19.1-23.1-32.2-42.9-39c-7.7-2.6-16.3,1.4-19.2,9l-22.8,59.3C363.4,75.6,365,82.2,369.7,86.5L369.7,86.5z M378.7,74.7
			l22.8-59.3c0.2-0.5,0.8-0.8,1.3-0.8c0.1,0,0.2,0,0.4,0.1c16.3,5.6,27.6,15.9,34.7,31.5c0.3,0.6,0,1.4-0.6,1.7l-56.8,28.4
			c-0.2,0.1-0.8,0.4-1.4-0.2C378.4,75.5,378.6,75,378.7,74.7L378.7,74.7z M378.7,74.7"/>
	</g>
	<path d="M111.3,392.5c-4.7-4.3-11.4-5.2-17.1-2.3l-56.8,28.4c-7.3,3.6-10.4,12.6-7.1,20c8.7,19.1,23.1,32.2,42.9,39
		c1.6,0.5,3.2,0.8,4.8,0.8c6.2,0,12-3.8,14.4-9.8l22.8-59.3C117.6,403.3,116,396.7,111.3,392.5L111.3,392.5z M102.3,404.2
		l-22.8,59.3c-0.2,0.6-1,1-1.6,0.8c-16.3-5.6-27.6-15.9-34.7-31.5c-0.3-0.6,0-1.4,0.6-1.7l56.8-28.4c0.1-0.1,0.3-0.2,0.6-0.2
		c0.2,0,0.5,0.1,0.8,0.4C102.6,403.4,102.4,404,102.3,404.2L102.3,404.2z M102.3,404.2"/>
	<g>
		<defs>
			<rect id="SVGID_3_" x="1" width="479" height="479"/>
		</defs>
		<clipPath id="SVGID_4_">
			<use xlink:href="#SVGID_3_"  style="overflow:visible;"/>
		</clipPath>
		<path class="st1" d="M443.5,418.5l-9.7-4.9c-3.5-1.7-7.6-0.3-9.4,3.1c-1.7,3.4-0.3,7.6,3.1,9.4l9.7,4.9c0.6,0.3,0.9,1.1,0.6,1.7
			c-7.1,15.6-18.5,26-34.7,31.5c-0.6,0.2-1.4-0.2-1.6-0.8l-22.8-59.3c-0.1-0.2-0.3-0.8,0.3-1.4c0.6-0.6,1.2-0.3,1.4-0.2l20.1,10.1
			c3.5,1.7,7.6,0.3,9.4-3.1c1.7-3.4,0.3-7.6-3.1-9.4l-20.1-10.1c-5.7-2.8-12.4-1.9-17.1,2.3c-4.7,4.3-6.3,10.9-4,16.8l22.8,59.3
			c2.3,6,8.2,9.8,14.4,9.8c1.6,0,3.2-0.3,4.8-0.8c19.8-6.8,34.3-19.9,42.9-39C453.9,431.1,450.8,422.2,443.5,418.5L443.5,418.5z
			 M443.5,418.5"/>
		<path class="st1" d="M55.7,239.6c0.1-4.9-2.6-9.3-6.9-11.5l-26.3-13.3c-3-1.5-6.6-1.8-9.9-0.7c-3.2,1.1-5.8,3.4-7.2,6.5
			c-5.9,12.6-5.9,24.9,0,36.4c2.2,4.4,6.7,6.9,11.3,6.9c1.7,0,3.5-0.4,5.2-1.1l26.4-12C52.8,248.8,55.6,244.5,55.7,239.6L55.7,239.6
			z M17.3,249.5c-3.1-6.8-3.1-13.9,0.2-21.6L40,239.3L17.3,249.5z M17.3,249.5"/>
		<path class="st1" d="M475.6,220.6c-1.4-3.1-4-5.4-7.2-6.5c-3.2-1.1-6.8-0.9-9.9,0.7l-26.3,13.3c-4.4,2.2-7,6.6-6.9,11.5
			c0.1,4.9,2.9,9.2,7.4,11.2l26.4,12c1.7,0.8,3.5,1.1,5.2,1.1c4.6,0,9-2.5,11.3-6.9C481.5,245.5,481.5,233.3,475.6,220.6
			L475.6,220.6z M463.7,249.5L441,239.3l22.5-11.3C466.7,235.6,466.8,242.7,463.7,249.5L463.7,249.5z M463.7,249.5"/>
	</g>
	<path d="M167.3,50.6c0.9,3.1,3.7,5.1,6.7,5.1c0.6,0,1.3-0.1,1.9-0.3c3.7-1.1,5.9-4.9,4.8-8.6l-7.5-26.5c-1.1-3.7-4.9-5.9-8.6-4.8
		c-3.7,1.1-5.9,4.9-4.8,8.6L167.3,50.6z M167.3,50.6"/>
	<path d="M76,126c1.6-3.5,0-7.7-3.5-9.2l-20.8-9.3c-3.5-1.6-7.7,0-9.2,3.5c-1.6,3.5,0,7.7,3.5,9.2l20.8,9.3c0.9,0.4,1.9,0.6,2.9,0.6
		C72.3,130.1,74.8,128.6,76,126L76,126z M76,126"/>
	<path d="M43.6,318.4c-3.2,2.1-4.1,6.5-2,9.7c1.3,2,3.6,3.2,5.9,3.2c1.3,0,2.6-0.4,3.8-1.1l19.1-12.5c3.2-2.1,4.1-6.4,2-9.7
		c-2.1-3.2-6.4-4.1-9.7-2L43.6,318.4z M43.6,318.4"/>
	<path d="M188.2,420.3c-3.4-1.8-7.6-0.6-9.5,2.8l-10.9,20.1c-1.8,3.4-0.6,7.6,2.8,9.5c1.1,0.6,2.2,0.8,3.3,0.8
		c2.5,0,4.9-1.3,6.1-3.7l10.9-20.1C192.9,426.3,191.6,422.1,188.2,420.3L188.2,420.3z M188.2,420.3"/>
	<path d="M305.1,55.4c0.6,0.2,1.3,0.3,1.9,0.3c3,0,5.8-2,6.7-5.1l7.5-26.5c1.1-3.7-1.1-7.6-4.8-8.6c-3.7-1.1-7.6,1.1-8.6,4.8
		l-7.5,26.5C299.2,50.5,301.4,54.4,305.1,55.4L305.1,55.4z M305.1,55.4"/>
	<path d="M438.6,111c-1.6-3.5-5.7-5.1-9.2-3.5l-20.8,9.3c-3.5,1.6-5.1,5.7-3.5,9.2c1.2,2.6,3.7,4.1,6.4,4.1c1,0,1.9-0.2,2.9-0.6
		l20.8-9.3C438.6,118.6,440.2,114.5,438.6,111L438.6,111z M438.6,111"/>
	<path d="M408.7,307.9c-2.1,3.2-1.2,7.6,2,9.7l19.1,12.5c1.2,0.8,2.5,1.1,3.8,1.1c2.3,0,4.5-1.1,5.9-3.2c2.1-3.2,1.2-7.6-2-9.7
		l-19.1-12.5C415.1,303.8,410.8,304.7,408.7,307.9L408.7,307.9z M408.7,307.9"/>
	<path d="M302.3,423.1c-1.8-3.4-6.1-4.7-9.5-2.8c-3.4,1.8-4.7,6.1-2.8,9.5l10.9,20.1c1.3,2.3,3.7,3.7,6.2,3.7c1.1,0,2.3-0.3,3.3-0.8
		c3.4-1.8,4.7-6.1,2.8-9.5L302.3,423.1z M302.3,423.1"/>
</g>
</svg>
