<?xml version="1.0" encoding="utf-8"?>
<!-- Generator: Adobe Illustrator 25.0.0, SVG Export Plug-In . SVG Version: 6.00 Build 0)  -->
<svg version="1.1" id="Layer_1" xmlns="http://www.w3.org/2000/svg" xmlns:xlink="http://www.w3.org/1999/xlink" x="0px" y="0px"
	 viewBox="0 0 100 100" style="enable-background:new 0 0 100 100;" xml:space="preserve">
<style type="text/css">
	.st0{fill:#FFFFFF;}
</style>
<g>
	<path class="st0" d="M50,1.8c-15.8,0-28.6,12.9-28.6,28.6v39c0,15.8,12.9,28.6,28.6,28.6s28.6-12.9,28.6-28.6v-39
		C78.6,14.7,65.8,1.8,50,1.8z M76.6,69.5c0,14.7-12,26.6-26.6,26.6s-26.6-12-26.6-26.6v-39c0-14.7,12-26.6,26.6-26.6
		s26.6,12,26.6,26.6V69.5z"/>
	<path class="st0" d="M50,43.6c-3.5,0-6.4,2.8-6.4,6.4s2.8,6.4,6.4,6.4c3.5,0,6.4-2.8,6.4-6.4S53.5,43.6,50,43.6z"/>
</g>
</svg>
