<?xml version="1.0" encoding="utf-8"?>
<!-- Generator: Adobe Illustrator 25.0.0, SVG Export Plug-In . SVG Version: 6.00 Build 0)  -->
<svg version="1.1" id="Layer_1" xmlns="http://www.w3.org/2000/svg" xmlns:xlink="http://www.w3.org/1999/xlink" x="0px" y="0px"
	 viewBox="0 0 403.05 113.42" style="enable-background:new 0 0 403.05 113.42;" xml:space="preserve">
<style type="text/css">
	.st0{fill:#000000;}
</style>
<g>
	<path class="st0" d="M141.76,9.21C127.99-7.2,84,1.02,72.08,12.95C60.15,1.02,16.16-7.2,2.39,9.21C0.83,11.07,0,13.44,0,15.87
		v85.64c0,3.74,2.77,7.05,6.49,7.36c0.95,0.08,1.88-0.02,2.78-0.31c4.86-1.55,27.46-7.51,58.95,4.16c2.48,0.92,5.22,0.92,7.7,0
		c31.49-11.67,54.09-5.72,58.95-4.16c0.9,0.29,1.82,0.39,2.77,0.31c3.73-0.31,6.5-3.62,6.5-7.36l0-85.64
		C144.15,13.44,143.32,11.07,141.76,9.21z M50.45,75.48c0,1.03-0.35,1.91-1.04,2.62c-0.7,0.72-1.56,1.07-2.59,1.07
		c-0.99,0-1.85-0.36-2.59-1.07c-0.74-0.72-1.11-1.59-1.11-2.62V50.61c0-1.21-0.24-2.36-0.71-3.46c-0.47-1.1-1.12-2.05-1.95-2.86
		c-0.83-0.81-1.79-1.45-2.89-1.92c-1.1-0.47-2.27-0.71-3.53-0.71c-1.25,0-2.43,0.24-3.53,0.71c-1.1,0.47-2.05,1.11-2.86,1.92
		c-0.81,0.81-1.45,1.76-1.92,2.86c-0.47,1.1-0.71,2.25-0.71,3.46v24.87c0,1.03-0.35,1.91-1.04,2.62c-0.7,0.72-1.56,1.07-2.59,1.07
		c-1.03,0-1.91-0.36-2.62-1.07c-0.72-0.72-1.08-1.59-1.08-2.62V50.61c0-2.24,0.43-4.35,1.28-6.32c0.85-1.97,2.02-3.7,3.5-5.18
		s3.22-2.66,5.21-3.53c1.99-0.87,4.11-1.31,6.35-1.31c2.24,0,4.36,0.44,6.35,1.31c1.99,0.87,3.73,2.05,5.21,3.53s2.65,3.2,3.53,5.18
		c0.87,1.97,1.31,4.08,1.31,6.32V75.48z M87.92,77.83c-0.7,0.72-1.56,1.08-2.59,1.08H59.93c-1.03,0-1.91-0.36-2.62-1.08
		c-0.72-0.72-1.08-1.59-1.08-2.62V37.97c0-1.03,0.36-1.9,1.08-2.62c0.72-0.72,1.59-1.08,2.62-1.08c0.99,0,1.84,0.36,2.55,1.08
		c0.72,0.72,1.08,1.59,1.08,2.62v33.61h21.78c1.03,0,1.89,0.35,2.59,1.04c0.69,0.69,1.04,1.56,1.04,2.59
		C88.97,76.24,88.62,77.11,87.92,77.83z M100.46,67.44c0.49,1.1,1.15,2.05,1.98,2.86c0.83,0.81,1.79,1.45,2.89,1.92
		c1.1,0.47,2.25,0.71,3.46,0.71c1.93,0,3.64-0.55,5.14-1.65c1.5-1.1,2.61-2.48,3.33-4.13c0.31-0.63,0.79-1.14,1.45-1.55
		c0.65-0.4,1.27-0.6,1.85-0.6c1.12,0,2,0.38,2.65,1.14c0.65,0.76,0.98,1.59,0.98,2.49c0,0.54-0.09,1.01-0.27,1.41
		c-0.58,1.52-1.38,2.91-2.39,4.17c-1.01,1.26-2.16,2.34-3.46,3.26c-1.3,0.92-2.73,1.62-4.3,2.12c-1.57,0.49-3.23,0.74-4.97,0.74
		c-2.24,0-4.36-0.44-6.35-1.31c-1.99-0.87-3.73-2.05-5.21-3.53s-2.66-3.2-3.53-5.18c-0.87-1.97-1.31-4.08-1.31-6.32V49.4
		c0-2.24,0.43-4.36,1.28-6.35c0.85-1.99,2.02-3.73,3.5-5.21c1.48-1.48,3.22-2.64,5.21-3.5c1.99-0.85,4.13-1.28,6.42-1.28
		c1.66,0,3.25,0.24,4.77,0.71c1.52,0.47,2.93,1.14,4.24,2.02c1.3,0.87,2.45,1.91,3.46,3.09c1.01,1.19,1.83,2.5,2.45,3.93
		c0.18,0.31,0.3,0.65,0.37,1.01c0.07,0.36,0.1,0.67,0.1,0.94c0,0.9-0.31,1.73-0.94,2.49c-0.63,0.76-1.52,1.14-2.69,1.14
		c-1.52,0-2.64-0.74-3.36-2.22c-0.67-1.66-1.76-3.03-3.26-4.1c-1.5-1.08-3.22-1.61-5.14-1.61c-1.25,0-2.43,0.24-3.53,0.71
		c-1.1,0.47-2.06,1.11-2.89,1.92c-0.83,0.81-1.48,1.76-1.95,2.86c-0.47,1.1-0.71,2.25-0.71,3.46v14.59
		C99.72,65.19,99.97,66.35,100.46,67.44z"/>
	<g>
		<g>
			<path class="st0" d="M155.07,33.56c0-2.07,0.36-4.01,1.08-5.83c0.72-1.82,1.72-3.4,3.01-4.75c1.29-1.35,2.81-2.43,4.56-3.23
				c1.75-0.8,3.67-1.2,5.74-1.2c2.54,0,4.73,0.5,6.59,1.49c1.86,0.99,3.4,2.31,4.63,3.96c1.35-1.61,2.93-2.92,4.72-3.93
				c1.8-1.02,3.94-1.52,6.43-1.52c2.07,0,3.99,0.4,5.77,1.2c1.77,0.8,3.31,1.88,4.6,3.23c1.29,1.35,2.29,2.94,3.01,4.75
				c0.72,1.82,1.08,3.76,1.08,5.83v24.66c0,0.68-0.24,1.25-0.73,1.71c-0.49,0.47-1.05,0.7-1.68,0.7c-0.68,0-1.25-0.23-1.71-0.7
				c-0.46-0.46-0.7-1.04-0.7-1.71V33.56c0-1.39-0.23-2.71-0.7-3.96c-0.46-1.25-1.12-2.32-1.96-3.23c-0.84-0.91-1.86-1.64-3.04-2.19
				c-1.18-0.55-2.49-0.82-3.93-0.82c-1.39,0-2.64,0.28-3.74,0.82c-1.1,0.55-2.02,1.28-2.76,2.19c-0.74,0.91-1.3,1.99-1.68,3.23
				c-0.38,1.25-0.57,2.57-0.57,3.96v24.66c0,0.68-0.23,1.25-0.7,1.71c-0.47,0.47-1.04,0.7-1.71,0.7c-0.68,0-1.25-0.23-1.71-0.7
				c-0.47-0.46-0.7-1.04-0.7-1.71V33.5c0-1.39-0.2-2.7-0.6-3.93c-0.4-1.23-0.97-2.29-1.71-3.2c-0.74-0.91-1.66-1.64-2.76-2.19
				c-1.1-0.55-2.35-0.82-3.74-0.82c-1.39,0-2.68,0.28-3.87,0.82c-1.19,0.55-2.2,1.28-3.04,2.19c-0.84,0.91-1.5,1.99-1.96,3.23
				c-0.47,1.25-0.7,2.57-0.7,3.96v24.66c0,0.68-0.24,1.25-0.73,1.71c-0.49,0.47-1.05,0.7-1.68,0.7c-0.68,0-1.25-0.23-1.71-0.7
				c-0.47-0.46-0.7-1.04-0.7-1.71V33.56z"/>
			<path class="st0" d="M233.74,20c0.42-0.97,1.16-1.46,2.22-1.46c0.29,0,0.61,0.06,0.95,0.19c0.59,0.25,1.01,0.68,1.27,1.27
				l15.97,37.34c0.13,0.34,0.19,0.68,0.19,1.01c0,0.55-0.21,1.08-0.64,1.58c-0.42,0.51-0.99,0.76-1.71,0.76
				c-1.06,0-1.8-0.49-2.22-1.46l-4.5-10.52h-18.64l-4.5,10.52c-0.21,0.47-0.52,0.82-0.92,1.08c-0.4,0.25-0.83,0.38-1.3,0.38
				c-0.72,0-1.29-0.25-1.71-0.76c-0.42-0.51-0.63-1.04-0.63-1.58c0-0.34,0.06-0.68,0.19-1.01L233.74,20z M235.96,26.97l-7.29,16.93
				h14.52L235.96,26.97z"/>
			<path class="st0" d="M266.7,21.2c0-0.68,0.23-1.25,0.7-1.71c0.46-0.46,1.03-0.7,1.71-0.7h12.68c2.07,0,4.03,0.39,5.9,1.17
				c1.86,0.78,3.46,1.85,4.82,3.2c1.35,1.35,2.43,2.93,3.23,4.72c0.8,1.8,1.21,3.73,1.21,5.8v12.04c0,2.07-0.4,4-1.21,5.8
				c-0.8,1.8-1.88,3.37-3.23,4.72c-1.35,1.35-2.95,2.42-4.79,3.2s-3.79,1.17-5.86,1.17h-12.74c-0.64,0-1.19-0.23-1.68-0.7
				c-0.49-0.46-0.73-1.04-0.73-1.71V21.2z M271.52,23.61v32.2h10.33c1.43,0,2.78-0.26,4.02-0.79c1.25-0.53,2.34-1.25,3.26-2.16
				c0.93-0.91,1.66-1.97,2.19-3.2c0.53-1.23,0.79-2.54,0.79-3.93V33.69c0-1.39-0.26-2.7-0.79-3.93c-0.53-1.23-1.26-2.29-2.19-3.2
				c-0.93-0.91-2.03-1.63-3.3-2.16c-1.27-0.53-2.62-0.79-4.06-0.79H271.52z"/>
			<path class="st0" d="M310.44,21.2c0-0.68,0.24-1.25,0.73-1.71c0.49-0.46,1.05-0.7,1.68-0.7h12.74c2.07,0,4.02,0.39,5.86,1.17
				c1.84,0.78,3.43,1.85,4.79,3.2c1.35,1.35,2.43,2.93,3.23,4.72c0.8,1.8,1.21,3.73,1.21,5.8c0,2.96-0.77,5.61-2.31,7.96
				c-1.54,2.35-3.56,4.13-6.05,5.36l8.3,9.64c0.38,0.47,0.57,0.99,0.57,1.58c0,0.68-0.23,1.26-0.7,1.74
				c-0.46,0.49-1.04,0.73-1.71,0.73c-0.68,0-1.29-0.27-1.84-0.82l-8.62-9.95c-0.34-0.38-0.74-0.7-1.21-0.95
				c-0.47-0.25-0.95-0.38-1.46-0.38h-10.39v9.64c0,0.68-0.24,1.25-0.73,1.71c-0.49,0.47-1.05,0.7-1.68,0.7
				c-0.68,0-1.25-0.23-1.71-0.7c-0.47-0.46-0.7-1.04-0.7-1.71V21.2z M315.26,23.61v20.16h10.33c1.39,0,2.71-0.26,3.96-0.79
				c1.25-0.53,2.33-1.25,3.26-2.15c0.93-0.91,1.67-1.97,2.22-3.2c0.55-1.23,0.82-2.54,0.82-3.93c0-1.39-0.26-2.7-0.79-3.93
				c-0.53-1.23-1.26-2.29-2.19-3.2c-0.93-0.91-2.02-1.63-3.26-2.16c-1.25-0.53-2.59-0.79-4.02-0.79H315.26z"/>
			<path class="st0" d="M354.69,21.2c0-0.68,0.23-1.25,0.7-1.71c0.46-0.46,1.03-0.7,1.71-0.7c0.63,0,1.19,0.23,1.68,0.7
				c0.49,0.47,0.73,1.04,0.73,1.71v37.02c0,0.68-0.23,1.25-0.7,1.71c-0.47,0.47-1.04,0.7-1.71,0.7c-0.64,0-1.19-0.23-1.68-0.7
				c-0.49-0.46-0.73-1.04-0.73-1.71V21.2z"/>
			<path class="st0" d="M372.81,21.2c0-0.68,0.23-1.25,0.7-1.71c0.46-0.46,1.03-0.7,1.71-0.7h12.68c2.07,0,4.03,0.39,5.9,1.17
				c1.86,0.78,3.46,1.85,4.82,3.2c1.35,1.35,2.43,2.93,3.23,4.72c0.8,1.8,1.21,3.73,1.21,5.8v12.04c0,2.07-0.4,4-1.21,5.8
				s-1.88,3.37-3.23,4.72c-1.35,1.35-2.95,2.42-4.79,3.2c-1.84,0.78-3.79,1.17-5.86,1.17h-12.74c-0.64,0-1.19-0.23-1.68-0.7
				c-0.49-0.46-0.73-1.04-0.73-1.71V21.2z M377.63,23.61v32.2h10.33c1.43,0,2.78-0.26,4.02-0.79c1.25-0.53,2.34-1.25,3.26-2.16
				c0.93-0.91,1.66-1.97,2.19-3.2c0.53-1.23,0.79-2.54,0.79-3.93V33.69c0-1.39-0.26-2.7-0.79-3.93c-0.53-1.23-1.26-2.29-2.19-3.2
				c-0.93-0.91-2.03-1.63-3.3-2.16c-1.27-0.53-2.62-0.79-4.06-0.79H377.63z"/>
		</g>
		<g>
			<path class="st0" d="M168.67,83.91c-0.37-0.22-0.8-0.39-1.28-0.51c0.19-0.08,0.39-0.16,0.56-0.26c0.86-0.47,1.49-1.08,1.91-1.84
				c0.42-0.75,0.62-1.58,0.62-2.47c0-2.02-0.7-3.51-2.09-4.47c-1.39-0.96-3.32-1.43-5.79-1.43h-7.53v21.64h1.63h2.63h3.92
				c2.45,0,4.35-0.54,5.69-1.61c1.35-1.07,2.02-2.66,2.02-4.75c0-0.87-0.19-1.69-0.56-2.45C170.05,85.01,169.47,84.39,168.67,83.91z
				 M162.61,76.38c1.25,0,2.16,0.22,2.75,0.67c0.59,0.45,0.88,1.17,0.88,2.18c0,0.89-0.3,1.58-0.91,2.06
				c-0.61,0.48-1.51,0.72-2.7,0.72h-3.28v-5.63H162.61z M165.88,90.32c-0.56,0.56-1.44,0.84-2.62,0.84h-3.92v-6.12h4.1
				c0.78,0,1.41,0.13,1.89,0.38c0.48,0.25,0.83,0.62,1.06,1.09c0.22,0.48,0.33,1.04,0.33,1.68
				C166.73,89.05,166.44,89.77,165.88,90.32z"/>
			<path class="st0" d="M185.51,89.89c-0.23,0.46-0.56,0.83-0.98,1.12c-0.54,0.36-1.27,0.54-2.2,0.54c-0.45,0-0.85-0.08-1.2-0.25
				c-0.36-0.17-0.64-0.44-0.85-0.82c-0.21-0.38-0.31-0.89-0.31-1.54V78.5h-4.09v10.4c0,2.13,0.49,3.66,1.48,4.58
				c0.99,0.93,2.27,1.39,3.86,1.39c1.39,0,2.53-0.33,3.43-0.98c0.38-0.28,0.71-0.61,1-0.97l0.1,1.65h3.85V78.5h-4.09V89.89z"/>
			<path class="st0" d="M204.69,85.9c-0.9-0.38-1.95-0.69-3.14-0.93c-0.78-0.16-1.4-0.33-1.84-0.51c-0.45-0.18-0.77-0.4-0.96-0.64
				c-0.19-0.24-0.29-0.52-0.29-0.84c0-0.35,0.09-0.66,0.27-0.93c0.18-0.27,0.46-0.49,0.82-0.65c0.36-0.16,0.8-0.25,1.3-0.25
				c0.87,0,1.52,0.21,1.94,0.64c0.42,0.43,0.63,0.95,0.63,1.58h4.09c0-0.99-0.27-1.87-0.8-2.65c-0.53-0.78-1.29-1.39-2.29-1.84
				c-1-0.45-2.18-0.67-3.56-0.67c-1.32,0-2.45,0.23-3.4,0.68c-0.95,0.46-1.68,1.06-2.18,1.81c-0.51,0.75-0.76,1.57-0.76,2.45
				c0,0.92,0.25,1.7,0.74,2.33c0.49,0.63,1.17,1.15,2.03,1.55c0.86,0.4,1.85,0.72,2.96,0.96c0.93,0.19,1.63,0.39,2.11,0.6
				c0.48,0.21,0.8,0.44,0.97,0.69c0.17,0.25,0.26,0.54,0.26,0.86c0,0.35-0.1,0.65-0.3,0.92c-0.2,0.27-0.49,0.48-0.88,0.63
				c-0.39,0.15-0.87,0.23-1.44,0.23c-0.53,0-1.02-0.08-1.47-0.25c-0.46-0.17-0.83-0.43-1.11-0.79c-0.29-0.36-0.45-0.83-0.49-1.43
				h-3.91c0,0.88,0.27,1.74,0.8,2.56c0.53,0.83,1.31,1.51,2.33,2.04c1.03,0.54,2.29,0.8,3.78,0.8c1.36,0,2.54-0.21,3.54-0.63
				c1-0.42,1.78-1,2.33-1.75c0.55-0.74,0.82-1.58,0.82-2.53c0-1.03-0.26-1.87-0.77-2.53C206.31,86.8,205.6,86.28,204.69,85.9z"/>
			<rect x="212.52" y="78.5" class="st0" width="4.1" height="16.08"/>
			<path class="st0" d="M214.56,72.19c-0.7,0-1.26,0.2-1.67,0.61c-0.41,0.41-0.62,0.92-0.62,1.53c0,0.6,0.21,1.11,0.62,1.52
				c0.41,0.41,0.97,0.61,1.67,0.61c0.71,0,1.28-0.2,1.69-0.61c0.42-0.41,0.62-0.91,0.62-1.52c0-0.61-0.21-1.12-0.62-1.53
				C215.84,72.39,215.27,72.19,214.56,72.19z"/>
			<path class="st0" d="M233.32,78.8c-0.76-0.4-1.65-0.59-2.68-0.59c-1.27,0-2.38,0.32-3.34,0.96c-0.49,0.33-0.93,0.73-1.31,1.2
				l-0.13-1.86h-3.83v16.08h4.07V83.26c0.08-0.15,0.17-0.31,0.27-0.45c0.3-0.41,0.66-0.72,1.1-0.94c0.44-0.22,0.94-0.33,1.52-0.33
				c0.57,0,1.06,0.08,1.45,0.25c0.39,0.16,0.69,0.45,0.89,0.85c0.2,0.4,0.3,0.95,0.3,1.66v10.3h4.1V84.3c0-1.5-0.21-2.69-0.64-3.57
				C234.67,79.84,234.08,79.2,233.32,78.8z"/>
			<path class="st0" d="M251.67,79.2c-1.03-0.66-2.33-1-3.89-1c-1.48,0-2.77,0.35-3.89,1.05c-1.12,0.7-1.99,1.67-2.61,2.92
				c-0.62,1.25-0.93,2.7-0.93,4.34v0.58c0,1.45,0.31,2.76,0.94,3.93c0.63,1.17,1.54,2.11,2.72,2.81c1.18,0.7,2.59,1.05,4.23,1.05
				c1.58,0,2.9-0.3,3.93-0.91c1.03-0.61,1.81-1.29,2.31-2.03l-2.05-2.21c-0.48,0.62-1.05,1.09-1.72,1.4
				c-0.67,0.31-1.41,0.46-2.22,0.46c-0.84,0-1.57-0.19-2.18-0.58c-0.61-0.39-1.08-0.92-1.4-1.59c-0.22-0.47-0.36-0.99-0.43-1.56
				h10.33v-1.74c0-1.58-0.27-2.95-0.8-4.14C253.49,80.79,252.71,79.87,251.67,79.2z M250.79,85.01h-6.23
				c0.06-0.39,0.14-0.77,0.24-1.11c0.24-0.75,0.6-1.34,1.09-1.77c0.49-0.43,1.12-0.65,1.88-0.65c0.7,0,1.27,0.14,1.71,0.43
				c0.44,0.29,0.76,0.67,0.97,1.16c0.21,0.49,0.32,1.02,0.34,1.61V85.01z"/>
			<path class="st0" d="M269.08,85.9c-0.9-0.38-1.95-0.69-3.14-0.93c-0.78-0.16-1.4-0.33-1.84-0.51c-0.45-0.18-0.77-0.4-0.96-0.64
				c-0.19-0.24-0.29-0.52-0.29-0.84c0-0.35,0.09-0.66,0.27-0.93c0.18-0.27,0.46-0.49,0.82-0.65c0.36-0.16,0.8-0.25,1.3-0.25
				c0.87,0,1.52,0.21,1.94,0.64c0.42,0.43,0.63,0.95,0.63,1.58h4.09c0-0.99-0.27-1.87-0.8-2.65c-0.53-0.78-1.29-1.39-2.29-1.84
				c-1-0.45-2.18-0.67-3.56-0.67c-1.32,0-2.45,0.23-3.4,0.68c-0.95,0.46-1.68,1.06-2.18,1.81c-0.51,0.75-0.76,1.57-0.76,2.45
				c0,0.92,0.25,1.7,0.74,2.33c0.49,0.63,1.17,1.15,2.03,1.55c0.86,0.4,1.85,0.72,2.96,0.96c0.93,0.19,1.63,0.39,2.11,0.6
				c0.48,0.21,0.8,0.44,0.97,0.69c0.17,0.25,0.26,0.54,0.26,0.86c0,0.35-0.1,0.65-0.3,0.92c-0.2,0.27-0.49,0.48-0.88,0.63
				c-0.39,0.15-0.87,0.23-1.44,0.23c-0.53,0-1.02-0.08-1.47-0.25c-0.46-0.17-0.83-0.43-1.11-0.79c-0.29-0.36-0.45-0.83-0.49-1.43
				h-3.91c0,0.88,0.27,1.74,0.8,2.56c0.53,0.83,1.31,1.51,2.33,2.04c1.03,0.54,2.29,0.8,3.78,0.8c1.36,0,2.54-0.21,3.54-0.63
				s1.78-1,2.33-1.75c0.55-0.74,0.82-1.58,0.82-2.53c0-1.03-0.26-1.87-0.77-2.53C270.69,86.8,269.98,86.28,269.08,85.9z"/>
			<path class="st0" d="M286.57,85.9c-0.9-0.38-1.95-0.69-3.14-0.93c-0.78-0.16-1.4-0.33-1.84-0.51c-0.45-0.18-0.77-0.4-0.96-0.64
				c-0.19-0.24-0.29-0.52-0.29-0.84c0-0.35,0.09-0.66,0.27-0.93c0.18-0.27,0.46-0.49,0.82-0.65c0.36-0.16,0.8-0.25,1.3-0.25
				c0.87,0,1.52,0.21,1.94,0.64c0.42,0.43,0.63,0.95,0.63,1.58h4.09c0-0.99-0.27-1.87-0.8-2.65c-0.53-0.78-1.29-1.39-2.29-1.84
				c-1-0.45-2.18-0.67-3.56-0.67c-1.32,0-2.45,0.23-3.4,0.68c-0.95,0.46-1.68,1.06-2.18,1.81c-0.51,0.75-0.76,1.57-0.76,2.45
				c0,0.92,0.25,1.7,0.74,2.33c0.49,0.63,1.17,1.15,2.03,1.55c0.86,0.4,1.85,0.72,2.96,0.96c0.93,0.19,1.63,0.39,2.11,0.6
				c0.48,0.21,0.8,0.44,0.97,0.69c0.17,0.25,0.26,0.54,0.26,0.86c0,0.35-0.1,0.65-0.3,0.92c-0.2,0.27-0.49,0.48-0.88,0.63
				c-0.39,0.15-0.87,0.23-1.44,0.23c-0.53,0-1.02-0.08-1.47-0.25c-0.46-0.17-0.83-0.43-1.11-0.79c-0.29-0.36-0.45-0.83-0.49-1.43
				h-3.91c0,0.88,0.27,1.74,0.8,2.56c0.53,0.83,1.31,1.51,2.33,2.04c1.03,0.54,2.29,0.8,3.78,0.8c1.36,0,2.54-0.21,3.54-0.63
				s1.78-1,2.33-1.75c0.55-0.74,0.82-1.58,0.82-2.53c0-1.03-0.26-1.87-0.77-2.53C288.18,86.8,287.47,86.28,286.57,85.9z"/>
			<path class="st0" d="M316.2,83.59c-1.06-0.63-2.39-1.19-3.98-1.66c-0.96-0.29-1.77-0.59-2.42-0.9c-0.65-0.31-1.14-0.66-1.47-1.03
				c-0.33-0.38-0.5-0.81-0.5-1.31c0-0.5,0.13-0.94,0.39-1.34c0.26-0.4,0.65-0.72,1.19-0.95c0.54-0.23,1.2-0.35,2.01-0.35
				c0.84,0,1.54,0.14,2.09,0.42c0.55,0.28,0.96,0.66,1.23,1.15c0.27,0.49,0.4,1.06,0.4,1.7h4.25c0-1.28-0.32-2.42-0.97-3.42
				c-0.64-1-1.56-1.79-2.74-2.37c-1.18-0.58-2.58-0.87-4.2-0.87c-1.55,0-2.91,0.25-4.09,0.76c-1.18,0.51-2.11,1.21-2.79,2.11
				c-0.67,0.9-1.01,1.95-1.01,3.15c0,0.92,0.19,1.73,0.56,2.44c0.37,0.7,0.89,1.32,1.55,1.85c0.66,0.53,1.42,0.99,2.3,1.39
				c0.87,0.4,1.81,0.75,2.81,1.07c1.2,0.37,2.11,0.72,2.73,1.06c0.62,0.34,1.05,0.7,1.27,1.08c0.22,0.39,0.33,0.85,0.33,1.38
				c0,0.5-0.13,0.94-0.39,1.33c-0.26,0.39-0.65,0.7-1.17,0.92c-0.52,0.22-1.19,0.33-2,0.33c-0.64,0-1.23-0.07-1.77-0.2
				c-0.54-0.13-1-0.35-1.4-0.64c-0.4-0.29-0.7-0.67-0.91-1.14c-0.21-0.47-0.32-1.03-0.32-1.71h-4.27c0,1.21,0.25,2.25,0.74,3.14
				c0.5,0.88,1.16,1.61,2,2.19c0.84,0.58,1.77,1.01,2.79,1.29c1.03,0.28,2.07,0.42,3.13,0.42c1.58,0,2.96-0.24,4.13-0.71
				c1.17-0.48,2.08-1.16,2.72-2.06c0.64-0.9,0.97-1.96,0.97-3.2c0-1.18-0.27-2.2-0.8-3.07C318.06,84.97,317.27,84.22,316.2,83.59z"
				/>
			<path class="st0" d="M327.7,83.98c0.17-0.74,0.49-1.34,0.96-1.8c0.47-0.46,1.14-0.69,2.01-0.69c0.6,0,1.12,0.13,1.54,0.39
				c0.42,0.26,0.74,0.62,0.97,1.06c0.23,0.45,0.35,0.94,0.37,1.47h3.83c-0.01-1.26-0.3-2.35-0.86-3.28
				c-0.56-0.93-1.34-1.65-2.33-2.16c-0.99-0.51-2.15-0.77-3.46-0.77c-1.64,0-3.01,0.36-4.1,1.08c-1.09,0.72-1.91,1.7-2.45,2.93
				c-0.54,1.23-0.82,2.6-0.82,4.1v0.45c0,1.51,0.27,2.87,0.82,4.1c0.54,1.23,1.36,2.21,2.45,2.93c1.09,0.72,2.46,1.08,4.12,1.08
				c1.24,0,2.35-0.25,3.34-0.76c0.99-0.51,1.79-1.19,2.39-2.07c0.6-0.87,0.9-1.86,0.91-2.97h-3.83c-0.02,0.5-0.15,0.93-0.4,1.32
				c-0.25,0.38-0.59,0.68-1.01,0.88s-0.91,0.31-1.46,0.31c-0.88,0-1.56-0.23-2.03-0.68c-0.47-0.46-0.79-1.05-0.96-1.78
				c-0.17-0.73-0.25-1.52-0.25-2.36v-0.45C327.44,85.5,327.53,84.72,327.7,83.98z"/>
			<path class="st0" d="M352.88,78.81c-0.79-0.41-1.72-0.61-2.78-0.61c-1.24,0-2.32,0.34-3.25,1.02c-0.41,0.3-0.77,0.65-1.09,1.05
				v-8.51h-4.1v22.83h4.1V83.15c0.06-0.11,0.12-0.24,0.19-0.34c0.29-0.41,0.65-0.72,1.09-0.94c0.44-0.22,0.97-0.33,1.6-0.33
				c0.56,0,1.05,0.09,1.44,0.26c0.4,0.17,0.7,0.47,0.9,0.88c0.2,0.41,0.3,0.97,0.3,1.69v10.22h4.1v-10.2c0-1.51-0.22-2.71-0.66-3.61
				C354.29,79.88,353.67,79.22,352.88,78.81z"/>
			<path class="st0" d="M371.59,79.28c-1.13-0.71-2.51-1.07-4.13-1.07c-1.6,0-2.96,0.36-4.08,1.07s-1.98,1.69-2.58,2.92
				c-0.59,1.23-0.89,2.63-0.89,4.2v0.31c0,1.56,0.3,2.95,0.89,4.19c0.59,1.24,1.46,2.21,2.59,2.92c1.13,0.71,2.5,1.06,4.1,1.06
				c1.61,0,2.99-0.35,4.11-1.06c1.12-0.71,1.98-1.68,2.57-2.92c0.59-1.24,0.88-2.64,0.88-4.19v-0.31c0-1.57-0.3-2.96-0.88-4.2
				C373.58,80.96,372.72,79.99,371.59,79.28z M370.96,86.71c0,0.89-0.12,1.71-0.35,2.45c-0.23,0.74-0.6,1.34-1.11,1.78
				c-0.51,0.44-1.18,0.66-2.01,0.66c-0.83,0-1.5-0.22-2.01-0.66c-0.51-0.44-0.88-1.03-1.11-1.78s-0.35-1.56-0.35-2.45v-0.31
				c0-0.88,0.11-1.69,0.34-2.44c0.23-0.74,0.6-1.34,1.11-1.79c0.51-0.45,1.18-0.68,2-0.68c0.85,0,1.53,0.23,2.04,0.68
				c0.51,0.45,0.88,1.05,1.11,1.79c0.23,0.74,0.35,1.56,0.35,2.44V86.71z"/>
			<path class="st0" d="M390.66,79.28c-1.13-0.71-2.51-1.07-4.13-1.07c-1.6,0-2.96,0.36-4.08,1.07s-1.98,1.69-2.58,2.92
				c-0.59,1.23-0.89,2.63-0.89,4.2v0.31c0,1.56,0.3,2.95,0.89,4.19c0.59,1.24,1.46,2.21,2.59,2.92c1.13,0.71,2.5,1.06,4.1,1.06
				c1.61,0,2.99-0.35,4.11-1.06c1.12-0.71,1.98-1.68,2.57-2.92c0.59-1.24,0.88-2.64,0.88-4.19v-0.31c0-1.57-0.3-2.96-0.88-4.2
				C392.65,80.96,391.79,79.99,390.66,79.28z M390.03,86.71c0,0.89-0.12,1.71-0.35,2.45c-0.23,0.74-0.6,1.34-1.11,1.78
				c-0.51,0.44-1.18,0.66-2.01,0.66s-1.5-0.22-2.01-0.66c-0.51-0.44-0.88-1.03-1.11-1.78c-0.23-0.74-0.35-1.56-0.35-2.45v-0.31
				c0-0.88,0.11-1.69,0.34-2.44c0.23-0.74,0.6-1.34,1.11-1.79c0.51-0.45,1.18-0.68,2-0.68c0.85,0,1.53,0.23,2.04,0.68
				c0.51,0.45,0.88,1.05,1.11,1.79c0.23,0.74,0.35,1.56,0.35,2.44V86.71z"/>
			<rect x="398.95" y="71.76" class="st0" width="4.1" height="22.83"/>
		</g>
	</g>
</g>
</svg>
