<?xml version="1.0" encoding="utf-8"?>
<!-- Generator: Adobe Illustrator 25.0.0, SVG Export Plug-In . SVG Version: 6.00 Build 0)  -->
<svg version="1.1" id="Layer_1" xmlns="http://www.w3.org/2000/svg" xmlns:xlink="http://www.w3.org/1999/xlink" x="0px" y="0px"
	 viewBox="0 0 512 512" style="enable-background:new 0 0 512 512;" xml:space="preserve">
<g>
	<path d="M194.35,364.4h-7.62l4.52-21.74c1.97-9.49-12.71-12.55-14.69-3.05l-5.15,24.79h-16.84l4.52-21.74
		c1.97-9.49-12.71-12.55-14.69-3.05l-5.15,24.79h-10.71c-9.7,0-9.7,15,0,15h7.59l-3.65,17.55h-10.67c-9.7,0-9.7,15,0,15h7.55
		l-4.63,22.26c-1.92,9.23,12.68,12.68,14.69,3.05l5.26-25.31h16.84l-4.63,22.26c-1.92,9.23,12.68,12.68,14.69,3.05l5.26-25.31h10.77
		c9.7,0,9.7-15,0-15h-7.65l3.65-17.55h10.73C204.04,379.4,204.04,364.4,194.35,364.4z M164.64,396.95h-16.84l3.65-17.55h16.84
		L164.64,396.95z"/>
	<path d="M393.17,388.44c0-4.14-3.36-7.5-7.5-7.5H247c-9.93,0.34-9.92,14.66,0,15h138.67C389.81,395.94,393.17,392.58,393.17,388.44
		z"/>
	<path d="M430.67,196.18l12.47,20.16c4.25,4.74,8.5,4.74,12.76,0l12.47-20.16h18.46c13.88,0,25.17-11.29,25.17-25.17v-99.2
		c0-13.88-11.29-25.17-25.17-25.17H228.81V25.17C228.81,11.29,217.52,0,203.64,0H25.17C11.29,0,0,11.29,0,25.17v30.76
		c0,9.7,15,9.7,15,0V25.17C15,19.56,19.56,15,25.17,15h178.47c5.61,0,10.17,4.56,10.17,10.17v21.47h-5.46
		c-13.88,0-25.17,11.29-25.17,25.17v62.73H77.15c-2.6,0-5.01,1.35-6.38,3.55l-8.29,13.4l-8.29-13.4c-1.37-2.21-3.78-3.55-6.38-3.55
		H25.17c-5.61,0-10.17-4.56-10.17-10.17V94c0-9.7-15-9.7-15,0v30.37c0,13.88,11.29,25.17,25.17,25.17h18.46L56.1,169.7
		c4.25,4.74,8.5,4.74,12.76,0l12.47-20.16h101.86v15.5h-16.42c-13.88,0-25.17,11.29-25.17,25.17v53.04H72.07
		c-15.16,0-27.5,12.34-27.5,27.5v193.33H7.5c-4.14,0-7.5,3.36-7.5,7.5C0,493.87,18.13,512,40.42,512h431.16
		c22.29,0,40.42-18.13,40.42-40.42c0-4.14-3.36-7.5-7.5-7.5h-37.07V270.75c0-15.16-12.34-27.5-27.5-27.5h-69.53v-47.07
		L430.67,196.18L430.67,196.18z M198.19,71.81c0-5.61,4.56-10.17,10.17-10.17h278.47c5.61,0,10.17,4.56,10.17,10.17v99.2
		c0,5.61-4.56,10.17-10.17,10.17h-22.64c-2.6,0-5.01,1.34-6.38,3.55l-8.29,13.4l-8.29-13.4c-1.37-2.21-3.78-3.55-6.38-3.55h-66.11
		c-3.64-9.43-12.8-16.15-23.5-16.15H198.19L198.19,71.81z M156.59,190.21c0-5.61,4.56-10.17,10.17-10.17h178.47
		c5.61,0,10.17,4.56,10.17,10.17v99.2c0,5.61-4.56,10.17-10.17,10.17h-74.49c-2.6,0-5.01,1.35-6.38,3.55l-8.29,13.4l-8.29-13.4
		c-1.37-2.21-3.78-3.55-6.38-3.55h-74.64c-5.61,0-10.17-4.56-10.17-10.17L156.59,190.21z M59.57,270.75c0-6.89,5.61-12.5,12.5-12.5
		h69.53v15H82.07c-4.14,0-7.5,3.36-7.5,7.5v183.33h-15L59.57,270.75z M471.58,497H40.42c-11.41,0-21.08-7.55-24.29-17.92h316.01
		c9.7,0,9.7-15,0-15H89.57V288.25h52.03c-0.61,14.27,10.85,26.37,25.17,26.33h70.46l12.47,20.16c4.25,4.74,8.5,4.74,12.76,0
		l12.47-20.16h70.31c14.32,0.04,25.78-12.06,25.17-26.33h52.03v175.83h-50.44c-9.7,0-9.7,15,0,15h123.88
		C492.66,489.45,482.99,497,471.58,497L471.58,497z M439.93,258.25c6.89,0,12.5,5.61,12.5,12.5v193.33h-15V280.75
		c0-4.14-3.36-7.5-7.5-7.5h-59.53v-15H439.93z"/>
	<path d="M57,61.64h92.09c9.7,0,9.7-15,0-15H57C47.3,46.64,47.3,61.64,57,61.64z"/>
	<path d="M57,98.5h57.41c9.7,0,9.7-15,0-15H57C47.3,83.5,47.3,98.5,57,98.5z"/>
	<path d="M209.95,229.82h92.09c9.7,0,9.7-15,0-15h-92.09C200.26,214.82,200.26,229.82,209.95,229.82L209.95,229.82z"/>
	<path d="M284.7,251.68H227.3c-9.7,0-9.7,15,0,15h57.41C294.4,266.68,294.4,251.68,284.7,251.68z"/>
	<path d="M460.08,101.14c0-4.14-3.36-7.5-7.5-7.5H240.49c-9.7,0-9.7,15,0,15h212.09C456.72,108.64,460.08,105.28,460.08,101.14z"/>
	<path d="M452.58,130.5H392c-9.7,0-9.7,15,0,15h60.58C462.28,145.5,462.28,130.5,452.58,130.5z"/>
</g>
</svg>
